<?xml version="1.0" standalone="no"?>
<!DOCTYPE svg PUBLIC "-//W3C//DTD SVG 20010904//EN"
 "http://www.w3.org/TR/2001/REC-SVG-20010904/DTD/svg10.dtd">
<svg version="1.0" xmlns="http://www.w3.org/2000/svg"
 width="736.000000pt" height="736.000000pt" viewBox="0 0 736.000000 736.000000"
 preserveAspectRatio="xMidYMid meet">

<g transform="translate(0.000000,736.000000) scale(0.100000,-0.100000)"
fill="#000000" stroke="none">
<path d="M3871 6690 c-43 -7 -61 -16 -95 -48 -36 -35 -48 -40 -101 -45 -33 -2
-82 -15 -109 -28 -43 -20 -52 -30 -77 -86 -23 -49 -29 -77 -29 -131 0 -76 17
-106 68 -118 43 -10 218 -72 249 -88 67 -34 133 -138 133 -208 l0 -32 -48 49
c-26 28 -64 63 -85 78 -25 19 -36 34 -33 44 23 59 21 62 -31 61 -96 -2 -213
20 -269 52 -34 19 -68 30 -92 30 -34 0 -39 4 -50 33 -6 18 -29 50 -51 71 l-38
38 -7 -35 c-6 -34 -33 -65 -72 -85 -12 -6 -24 -8 -28 -5 -3 3 -6 37 -6 74 0
37 -5 71 -10 74 -16 10 -40 -58 -40 -110 0 -64 -18 -129 -40 -142 -16 -11 -19
-6 -28 58 -14 94 -72 186 -70 112 0 -35 -21 -153 -32 -172 -5 -10 -14 -4 -33
23 -27 41 -65 72 -74 62 -4 -4 -1 -12 5 -18 17 -17 15 -104 -4 -144 -9 -19
-35 -53 -58 -74 -22 -22 -73 -70 -112 -107 -39 -38 -75 -81 -81 -98 -6 -16
-34 -54 -62 -84 -40 -42 -51 -60 -51 -86 0 -25 -5 -35 -20 -40 -11 -3 -20 -13
-20 -22 0 -8 -6 -13 -12 -10 -18 6 -48 -42 -48 -77 0 -48 116 -176 177 -194
39 -11 153 -17 153 -7 0 2 -19 22 -42 44 -24 22 -40 43 -35 47 4 4 25 -11 47
-34 29 -32 47 -42 70 -42 52 0 100 -33 100 -69 0 -4 -16 -13 -36 -20 l-36 -13
35 -29 c37 -30 70 -98 61 -124 -4 -11 -20 -15 -55 -15 l-48 0 23 -52 c13 -29
21 -59 19 -66 -10 -28 29 3 77 61 107 131 127 292 54 426 -30 55 -30 61 4 61
53 0 186 76 256 146 16 16 20 12 30 -28 4 -19 13 -28 26 -28 20 0 20 -2 -4
-47 -14 -27 -39 -68 -55 -93 -36 -53 -38 -60 -11 -60 11 0 20 -4 20 -8 0 -5
-38 -64 -85 -133 -47 -68 -85 -130 -85 -136 0 -7 9 -13 21 -13 32 0 17 -42
-31 -90 -78 -78 -90 -193 -36 -353 55 -163 67 -207 73 -258 6 -54 21 -62 61
-33 13 9 24 14 26 13 30 -45 36 -65 36 -121 0 -67 28 -148 68 -206 28 -39 28
-43 -7 -36 -24 5 -29 2 -35 -20 -8 -34 24 -110 65 -152 l30 -31 -28 -7 c-15
-4 -36 -9 -45 -12 -15 -4 -17 0 -12 23 4 22 -3 41 -32 83 -21 30 -39 69 -41
85 -15 173 -64 264 -172 317 -43 22 -58 23 -242 23 l-196 0 -37 29 c-53 40
-70 84 -70 181 l0 80 -43 -90 c-23 -49 -43 -82 -43 -73 0 11 -5 15 -15 12 -13
-5 -13 -8 0 -27 23 -34 18 -47 -17 -47 -33 -1 -33 -1 -12 -18 20 -17 44 -53
44 -66 0 -3 -9 -6 -21 -6 -18 0 -17 -3 10 -26 17 -14 31 -31 31 -38 0 -7 16
-27 35 -46 56 -54 45 -66 -50 -60 -42 2 -23 -13 50 -40 50 -19 85 -24 215 -27
85 -2 162 -7 170 -10 31 -11 -25 -22 -86 -16 -73 7 -98 -5 -115 -52 -12 -31
-17 -35 -39 -30 -31 7 -55 -15 -65 -58 -5 -16 -17 -32 -31 -37 -43 -17 -52
-60 -28 -147 5 -19 2 -23 -19 -23 -13 0 -29 -6 -35 -13 -14 -16 -39 -154 -30
-163 4 -3 20 2 37 12 23 13 33 29 41 66 12 50 24 66 35 48 8 -14 -23 -110 -44
-134 -9 -10 -25 -22 -36 -27 -44 -18 41 -9 112 12 51 15 70 25 66 35 -4 11 9
14 59 14 42 0 76 6 99 18 42 22 171 27 200 9 16 -10 24 -6 56 24 27 25 45 34
61 31 l24 -4 -24 -25 -23 -25 30 -24 c28 -22 199 -84 235 -84 8 0 21 -4 28 -9
12 -7 12 -12 0 -30 -11 -20 -11 -24 6 -37 11 -8 30 -14 43 -14 33 0 164 27
252 53 l73 21 35 -42 c19 -23 43 -42 54 -42 29 0 48 53 51 144 2 42 6 76 9 76
3 0 10 -10 16 -22 23 -50 153 -207 167 -202 9 3 35 -23 73 -73 78 -102 143
-199 143 -212 0 -6 -14 -18 -31 -27 -27 -13 -41 -14 -97 -4 -73 13 -117 2
-127 -31 -4 -12 -16 -19 -30 -19 -31 0 -84 -46 -101 -87 -8 -18 -18 -33 -22
-33 -16 0 -72 60 -72 78 0 10 -7 27 -16 38 -15 18 -15 18 -9 -8 7 -35 -5 -35
-36 -2 -35 38 -188 110 -276 130 -45 10 -92 14 -119 10 -42 -5 -45 -4 -58 27
l-14 32 -1 -36 c-1 -30 -7 -38 -38 -56 -43 -24 -79 -61 -116 -115 l-25 -37
-58 39 c-118 80 -116 76 -106 147 5 36 5 68 -1 78 -6 11 -4 22 7 34 28 31 48
91 36 106 -14 17 -3 39 39 79 46 44 38 96 -14 96 -24 0 -55 -29 -55 -51 0 -9
6 -7 18 8 22 27 51 33 65 12 8 -13 1 -27 -34 -68 -29 -33 -49 -49 -59 -45 -8
3 -5 -4 8 -16 26 -25 27 -29 5 -75 -19 -39 -54 -55 -78 -35 -20 16 -19 87 0
106 8 9 15 21 15 27 0 8 -4 7 -9 -2 -8 -12 -12 -12 -26 2 -9 10 -17 17 -18 17
-2 0 -1 -17 1 -37 5 -55 -12 -93 -42 -93 -14 0 -28 4 -31 10 -9 14 -64 5 -82
-13 -12 -11 -22 -13 -40 -6 -13 5 -51 11 -85 13 -52 4 -63 8 -74 28 l-13 23
-1 -27 c0 -22 -7 -31 -34 -42 -19 -8 -52 -30 -74 -51 l-41 -36 -20 47 c-17 37
-19 54 -12 80 6 21 6 34 0 34 -5 0 -9 -7 -9 -16 0 -8 -5 -12 -10 -9 -5 3 -10
15 -10 25 0 50 -110 198 -179 242 -38 24 -46 33 -44 56 3 26 3 26 -9 5 -9 -18
-20 -23 -52 -23 -23 0 -50 -3 -62 -6 -19 -5 -22 0 -27 40 -8 57 -30 101 -70
143 -28 30 -29 34 -14 45 26 20 49 98 30 98 -5 0 -9 -11 -9 -25 -3 -38 -51
-97 -77 -93 -19 3 -22 11 -25 51 -4 55 8 74 46 80 25 4 25 4 -4 6 -31 1 -64
-23 -64 -47 0 -17 -20 -15 -26 3 -4 9 -18 14 -38 14 -28 -2 -29 -2 -4 -6 24
-4 51 -43 54 -78 1 -23 -18 -45 -40 -45 -31 0 -76 36 -76 61 0 10 -5 19 -10
19 -14 0 -1 -49 21 -82 24 -33 24 -32 -6 -64 -47 -51 -24 -133 53 -184 25 -16
50 -30 56 -30 33 -1 38 -16 21 -68 -10 -29 -15 -63 -11 -76 5 -19 1 -25 -17
-31 -21 -8 -21 -8 6 -12 16 -3 27 -11 27 -20 0 -17 75 -134 109 -170 27 -28
26 -33 -1 -33 -19 0 -20 -2 -8 -10 8 -5 25 -10 38 -10 13 0 40 -13 60 -30 20
-16 64 -41 96 -56 56 -25 58 -28 40 -42 -18 -13 -17 -14 11 -6 56 15 175 1
175 -20 0 -7 11 -35 25 -62 30 -60 30 -58 3 -72 -21 -11 -20 -12 8 -6 25 4 44
-3 91 -33 33 -22 95 -54 137 -73 l78 -34 -24 -18 c-28 -21 -8 -24 31 -3 22 11
37 12 66 4 21 -6 82 -9 137 -7 91 3 113 -1 88 -17 -5 -3 -10 -11 -10 -18 0 -6
15 3 33 20 17 18 62 43 99 56 l67 24 30 -48 30 -48 -26 -21 c-29 -23 -28 -24
14 -10 26 9 39 6 114 -33 46 -25 117 -55 157 -67 70 -22 72 -23 56 -41 -13
-15 -14 -19 -3 -19 8 0 22 7 32 15 14 10 40 12 107 8 53 -4 113 -1 150 6 34 7
64 10 68 7 3 -3 -3 -15 -13 -26 -10 -11 -14 -20 -8 -20 5 0 26 18 46 40 19 22
41 40 48 40 6 0 43 16 80 35 38 19 69 31 69 27 0 -4 -16 -55 -35 -112 -19 -57
-35 -118 -35 -134 0 -17 -3 -47 -6 -68 l-6 -36 -29 29 c-46 47 -54 23 -9 -28
38 -44 40 -49 40 -114 l0 -68 29 9 c21 6 33 4 40 -4 6 -7 29 -66 52 -132 22
-65 60 -156 84 -201 l44 -83 -34 0 c-18 0 -40 -3 -48 -6 -35 -13 -133 144
-183 295 -40 118 -98 232 -152 301 -44 54 -51 60 -69 53 -8 -3 -10 -9 -5 -12
5 -3 32 -36 59 -72 54 -72 107 -174 130 -254 29 -98 94 -230 144 -294 24 -30
19 -36 -20 -23 -23 8 -31 8 -31 -1 0 -8 -3 -8 -11 0 -6 6 -17 9 -24 7 -28 -11
-122 151 -165 284 -27 85 -86 221 -100 232 -3 3 -17 21 -30 40 -34 51 -72 90
-87 90 -21 0 -15 -12 28 -60 23 -25 48 -58 56 -75 8 -16 25 -48 38 -70 14 -22
34 -69 46 -105 38 -116 70 -193 111 -259 29 -49 36 -66 26 -72 -13 -8 -56 -6
-193 12 -44 5 -100 12 -125 16 -45 5 -45 6 -45 44 -2 99 -117 111 -139 16 -6
-23 -4 -28 10 -25 9 2 18 12 20 22 1 10 9 26 18 34 13 13 18 13 40 -2 30 -19
34 -55 10 -91 -23 -36 -92 -44 -139 -16 -20 12 -33 16 -30 11 13 -22 69 -42
104 -38 32 4 40 0 73 -37 26 -30 50 -45 80 -53 59 -15 387 -36 588 -37 180 -1
231 9 300 60 19 14 45 25 59 25 26 0 98 49 74 50 -7 0 -13 -4 -13 -8 0 -4 -13
-13 -29 -19 -24 -8 -37 -7 -69 7 -21 10 -42 25 -45 35 -12 31 -7 72 11 88 30
28 90 4 77 -30 -6 -16 14 -28 26 -16 11 11 -6 63 -24 75 -15 10 -79 10 -94 0
-15 -9 -33 -56 -33 -85 0 -20 -5 -22 -40 -20 -22 1 -39 -1 -36 -5 2 -4 -8 -7
-22 -6 -15 1 -37 3 -48 3 -34 1 -121 190 -185 399 -3 10 21 14 106 17 l110 4
18 43 c10 24 27 69 38 101 28 84 63 134 96 140 166 31 162 31 180 15 35 -30
46 -31 28 -4 -10 15 -16 28 -14 31 2 2 41 17 86 33 70 26 84 28 94 16 6 -8 47
-32 90 -53 42 -22 92 -54 109 -73 24 -25 29 -27 20 -10 -6 13 -10 26 -8 28 3
2 39 -3 82 -11 103 -20 270 -19 351 1 59 15 65 15 81 0 20 -20 32 -13 15 8
-11 13 -3 20 47 45 51 26 132 100 132 121 0 4 15 5 33 3 31 -3 31 -3 9 9 -21
10 -23 17 -18 47 3 20 6 51 6 68 0 28 6 36 39 53 22 11 54 37 71 59 l32 39 36
-24 c23 -16 47 -24 66 -22 44 4 43 24 -1 20 -71 -5 -115 41 -70 73 30 21 93
20 106 -2 9 -16 10 -16 11 3 0 24 -17 34 -58 34 l-25 0 20 23 c31 35 34 53 10
73 -12 10 -16 12 -9 4 20 -23 14 -46 -20 -72 -43 -32 -63 -39 -77 -25 -27 27
5 98 53 117 17 7 18 9 4 9 -11 1 -18 9 -18 19 0 22 -36 57 -66 66 -17 5 -27 0
-43 -20 -12 -15 -21 -32 -20 -38 0 -6 5 -1 11 12 18 36 57 40 85 8 23 -27 23
-28 4 -54 -36 -51 -57 -65 -80 -52 -12 6 -21 17 -21 25 0 22 -55 28 -94 10
-29 -14 -49 -34 -92 -93 -1 -2 -28 2 -59 10 l-56 13 6 35 c5 33 4 34 -10 16
-8 -11 -15 -28 -15 -38 0 -13 -16 -26 -49 -42 -28 -12 -66 -35 -85 -50 -36
-27 -36 -27 -36 -5 0 30 -14 14 -29 -31 -14 -43 -108 -160 -141 -177 -24 -12
-151 -18 -162 -8 -3 3 -3 17 0 30 4 21 10 25 37 25 24 0 43 9 68 33 45 42 56
91 32 152 -15 41 -64 95 -86 95 -5 0 -9 12 -9 26 0 61 -50 94 -145 94 -69 0
-85 8 -157 78 -53 51 -58 60 -58 99 0 45 9 53 30 27 8 -8 22 -20 32 -25 17 -9
18 -6 12 61 -4 43 -3 70 3 70 5 0 57 -50 116 -110 127 -133 188 -164 247 -127
15 8 23 9 28 1 23 -36 105 -44 205 -20 41 10 69 11 93 4 47 -13 101 4 152 47
36 32 44 35 63 24 55 -29 234 15 282 69 30 33 13 56 -91 130 -53 38 -275 196
-492 352 -217 156 -431 309 -475 340 l-80 56 -6 76 c-8 97 -34 211 -71 318
l-30 84 28 23 c49 39 67 30 134 -64 19 -27 40 -45 57 -48 113 -23 147 -50 212
-168 39 -70 143 -197 162 -197 20 0 -4 79 -60 195 -32 66 -62 135 -66 153 -7
32 -6 34 16 27 13 -4 40 -17 59 -30 74 -48 116 -106 140 -195 7 -24 30 -88 52
-142 31 -74 51 -107 81 -135 23 -20 43 -31 45 -25 2 6 -11 55 -29 109 -23 72
-33 124 -37 196 -5 95 1 115 26 85 11 -15 47 -138 73 -253 27 -122 102 -271
123 -244 7 10 -14 223 -29 297 -13 65 -14 86 -5 97 26 32 40 17 40 -42 0 -32
6 -70 14 -85 8 -14 17 -46 21 -70 3 -24 21 -95 40 -158 20 -70 39 -168 48
-251 14 -129 35 -209 55 -209 5 0 11 143 14 326 4 220 9 329 17 337 8 8 11 1
11 -28 0 -22 7 -65 15 -95 8 -30 15 -67 15 -82 0 -14 9 -47 20 -72 14 -33 22
-87 29 -202 13 -182 28 -279 46 -294 7 -6 15 -7 18 -3 3 4 13 76 23 158 25
205 26 628 2 763 -16 85 -16 111 -2 181 5 22 6 23 25 5 10 -9 26 -40 34 -68
22 -74 38 -275 30 -396 -5 -88 -2 -126 18 -235 21 -109 23 -143 16 -215 -11
-115 -11 -338 0 -344 8 -5 32 51 104 239 l30 80 4 250 c4 223 6 254 24 291 39
82 52 177 53 389 1 110 -3 250 -7 311 l-9 111 26 7 c29 7 68 57 49 63 -27 9
-101 73 -126 111 -16 21 -46 90 -67 151 -129 368 -394 747 -701 1006 l-86 72
18 34 c10 19 18 50 19 70 l0 36 -52 -9 c-29 -6 -80 -8 -113 -6 -52 4 -71 11
-145 59 -115 75 -297 171 -416 219 -185 76 -632 151 -773 130z m198 -80 c100
-13 135 -41 66 -54 -34 -7 -36 -9 -33 -44 l3 -37 -47 -3 c-37 -2 -63 4 -121
31 -79 37 -97 59 -71 88 26 29 83 34 203 19z m-1189 -765 c0 -36 -13 -50 -84
-88 -65 -36 -91 -35 -68 1 5 7 16 10 24 7 9 -4 32 0 51 9 48 19 55 50 28 111
-28 63 -27 65 14 25 25 -25 35 -43 35 -65z m-65 -5 c3 -5 2 -10 -4 -10 -5 0
-13 5 -16 10 -3 6 -2 10 4 10 5 0 13 -4 16 -10z m-25 -30 c0 -5 -5 -10 -11
-10 -5 0 -7 5 -4 10 3 6 8 10 11 10 2 0 4 -4 4 -10z m-142 -132 c85 -32 91
-32 262 -34 96 -1 181 -2 188 -3 23 -2 13 -60 -15 -89 -35 -36 -106 -77 -157
-91 -79 -21 -51 20 30 44 52 15 74 36 74 69 0 22 -135 22 -210 0 -30 -9 -95
-20 -145 -23 -103 -8 -129 -20 -150 -74 -28 -71 -18 -124 33 -179 l26 -28 -49
0 c-45 0 -51 3 -93 48 -87 93 -95 170 -24 226 14 11 36 45 49 75 30 67 49 91
75 91 11 0 59 -14 106 -32z m-195 -38 c-15 -38 -33 -53 -33 -29 0 11 38 69 45
69 2 0 -4 -18 -12 -40z m310 -1771 c-22 -44 -29 -115 -13 -134 16 -20 -1 -40
-42 -50 -24 -6 -28 -3 -39 34 -10 34 -9 47 5 85 17 45 65 96 91 96 11 0 10 -6
-2 -31z m-1090 -209 c15 -16 27 -36 27 -45 0 -9 5 -13 10 -10 6 3 11 -6 12
-22 0 -15 2 -41 4 -58 3 -40 -33 -93 -69 -101 -31 -6 -73 8 -127 43 -40 25
-63 60 -78 116 -10 36 -9 38 24 64 39 30 118 54 149 46 11 -3 32 -18 48 -33z
m1037 -135 c0 -9 -36 9 -58 28 -16 15 -19 23 -10 28 8 5 23 -3 40 -22 16 -17
28 -32 28 -34z m-100 21 c5 -13 15 -26 22 -29 8 -3 5 -6 -7 -6 -11 0 -31 8
-45 19 -21 17 -23 21 -10 30 23 15 30 12 40 -14z m-737 -49 c18 -8 34 -13 37
-13 15 3 130 -112 130 -129 0 -7 6 -18 14 -25 17 -14 10 -41 -9 -34 -9 4 -11
-2 -8 -20 6 -29 23 -35 23 -8 0 14 2 15 10 2 5 -8 7 -23 4 -32 -8 -26 5 -22
16 5 8 20 9 21 9 2 1 -11 17 -53 36 -93 31 -65 36 -102 15 -102 -13 0 -101
153 -96 167 3 6 -6 14 -20 17 -14 4 -22 11 -19 16 10 16 -24 77 -73 131 -49
55 -88 79 -126 79 -34 0 -56 10 -56 25 0 25 65 32 113 12z m703 -2 c18 -13 16
-14 -26 -14 -42 0 -44 1 -26 14 11 8 23 15 26 15 3 0 15 -7 26 -15z m-806
-131 c0 -16 -36 -37 -50 -29 -15 9 0 34 18 28 11 -5 14 -2 9 10 -4 11 -2 14 9
10 7 -3 14 -11 14 -19z m174 -30 c-17 -13 -54 -7 -54 8 0 6 9 8 21 5 13 -3 22
0 26 10 5 12 7 12 14 1 6 -8 3 -17 -7 -24z m-194 -114 c0 -13 -31 -41 -42 -38
-14 5 -10 23 5 23 6 0 11 8 9 18 -2 11 2 15 13 11 8 -3 15 -10 15 -14z m139
-14 c9 -11 8 -18 -4 -30 -19 -19 -48 -21 -42 -3 2 6 10 12 18 12 8 0 13 8 11
18 -3 21 2 22 17 3z m843 -83 c23 -22 28 -35 28 -75 0 -30 -4 -47 -10 -43 -5
3 -10 0 -10 -7 0 -8 -14 -35 -30 -62 -70 -110 -177 -86 -183 41 -1 18 -5 33
-9 33 -4 0 -3 11 2 24 5 15 5 27 -3 35 -8 8 -6 11 7 11 9 0 14 5 11 11 -4 5 1
19 11 30 9 10 14 19 10 19 -4 0 5 11 20 23 l28 24 49 -18 c28 -10 63 -31 79
-46z m-236 25 c2 -3 1 -19 -2 -37 -6 -28 -10 -32 -28 -26 -51 17 -143 17 -174
1 -34 -18 -72 -21 -72 -7 0 22 63 71 98 76 20 4 41 8 46 9 13 3 126 -11 132
-16z m-447 -124 c-16 -19 -50 -18 -43 0 3 8 12 12 20 9 10 -4 12 0 7 13 -6 17
-5 17 10 5 13 -10 15 -17 6 -27z m2158 -9 c-8 -26 -7 -42 2 -62 13 -28 13 -28
-8 -9 -25 23 -27 53 -5 84 21 31 24 28 11 -13z m-2308 11 c9 -11 8 -18 -4 -30
-21 -21 -45 -21 -45 0 0 10 6 14 15 10 10 -4 15 1 15 14 0 24 4 25 19 6z m589
-13 c2 -8 -5 -13 -17 -13 -12 0 -21 6 -21 16 0 18 31 15 38 -3z m852 -19 c30
-9 67 -17 82 -18 14 0 24 -4 22 -8 -6 -9 49 -38 71 -38 24 0 12 -24 -13 -28
-18 -3 -20 -6 -10 -22 22 -34 1 -32 -84 9 -67 32 -100 42 -160 47 -68 6 -81 4
-133 -20 -68 -31 -75 -32 -75 -8 2 76 169 124 300 86z m-1032 -38 c4 -18 -24
-56 -40 -56 -4 0 -8 9 -8 20 0 11 7 20 15 20 8 0 15 5 15 10 0 6 -5 10 -11 10
-5 0 -7 5 -4 11 10 14 29 6 33 -15z m594 -77 c35 -23 45 -34 41 -49 -3 -11 -7
-20 -10 -20 -4 0 -142 79 -173 99 -12 8 -12 13 -1 35 l14 25 41 -30 c23 -16
62 -43 88 -60z m1125 61 c40 -24 55 -52 47 -85 -8 -32 -20 -24 -47 33 -17 34
-31 48 -57 58 l-35 12 30 1 c17 1 44 -8 62 -19z m123 15 c0 -3 -10 -9 -21 -13
-20 -8 -20 -9 -4 -25 18 -19 17 -48 -2 -55 -8 -2 -13 6 -13 21 0 13 -7 30 -15
37 -22 18 -18 28 13 33 15 2 30 5 35 6 4 0 7 -1 7 -4z m-796 -60 c19 -14 19
-15 1 -35 -15 -17 -65 -29 -65 -16 0 19 14 34 27 29 13 -5 15 -2 11 15 -7 25
-1 27 26 7z m560 -7 c17 -23 21 -75 8 -94 -4 -6 -23 -16 -42 -23 -39 -13 -80
-48 -80 -68 0 -21 -20 -5 -31 25 -17 44 -1 99 40 143 44 45 81 51 105 17z
m-355 -12 c19 -22 -7 -56 -42 -56 -24 0 -26 2 -17 20 6 12 16 17 26 13 13 -5
15 -2 9 15 -7 25 7 29 24 8z m76 -33 c7 -7 18 -13 23 -13 5 0 18 -8 30 -17 11
-10 30 -26 41 -35 12 -10 21 -29 21 -43 l0 -25 -95 47 c-52 26 -95 53 -95 59
0 6 7 17 15 24 8 7 15 19 15 27 0 14 3 12 45 -24z m-1095 0 c0 -18 -28 -53
-42 -53 -4 0 -8 9 -8 20 0 11 3 19 8 19 19 -3 23 2 12 16 -10 13 -9 15 9 15
13 0 21 -6 21 -17z m3097 -55 c17 -18 38 -49 46 -69 18 -45 5 -83 -44 -122
-19 -14 -41 -33 -51 -41 -9 -8 -19 -12 -22 -9 -3 3 -11 2 -18 -4 -50 -36 -135
11 -123 68 8 34 54 149 55 135 0 -6 9 0 20 12 32 34 68 55 85 48 9 -3 13 -2
10 4 -14 22 13 8 42 -22z m-3267 -13 c0 -14 -8 -29 -19 -35 -27 -14 -31 -13
-31 10 0 13 5 18 15 14 18 -7 20 7 3 24 -9 9 -7 12 10 12 17 0 22 -6 22 -25z
m774 -19 c-7 -25 -33 -48 -45 -40 -15 9 -10 34 6 34 20 0 19 19 -2 27 -15 6
-14 7 3 14 26 9 46 -9 38 -35z m-360 28 c20 -8 20 -28 0 -48 -20 -20 -41 -21
-41 -1 0 8 6 15 14 15 16 0 17 12 1 28 -13 13 -1 16 26 6z m2098 -14 c56 -44
76 -144 38 -192 -20 -26 -76 -55 -86 -45 -3 3 -1 14 5 25 23 43 14 70 -31 93
-24 12 -45 23 -47 25 -9 8 74 114 90 114 3 0 18 -9 31 -20z m-966 -21 c6 -11
47 -8 92 6 36 12 26 -9 -19 -38 l-41 -27 -51 23 c-45 22 -48 26 -31 35 24 15
41 15 50 1z m-3 -76 c-6 -16 -51 -17 -79 0 -17 9 -20 17 -13 34 l8 21 44 -20
c29 -14 43 -26 40 -35z m1498 40 c10 -10 7 -19 -16 -43 -16 -16 -34 -30 -41
-30 -7 0 -47 -39 -91 -87 -43 -47 -102 -102 -132 -121 -49 -31 -63 -35 -143
-40 -48 -3 -88 -9 -88 -13 0 -5 -7 -9 -15 -9 -23 0 -18 -21 6 -27 16 -4 17 -8
7 -14 -21 -14 -36 -10 -43 11 -10 30 4 60 27 60 12 0 18 5 15 13 -3 9 7 13 33
14 21 1 53 8 71 17 36 15 90 59 91 73 0 4 4 7 8 6 4 -1 13 11 20 26 12 29 12
29 41 13 27 -16 29 -16 47 3 21 22 37 95 21 95 -5 0 -12 -7 -15 -15 -4 -8 -10
-12 -15 -9 -12 7 34 44 54 44 9 0 17 5 19 12 10 28 116 44 139 21z m-1366 -99
c14 -22 13 -25 -10 -48 -18 -19 -25 -36 -25 -66 l0 -41 -28 15 c-33 17 -52 54
-52 102 0 43 12 68 54 112 l31 33 7 -42 c4 -23 14 -52 23 -65z m535 81 c12
-14 12 -18 -1 -26 -8 -5 -18 -9 -24 -9 -5 -1 -40 -4 -77 -9 -38 -4 -69 -3 -71
2 -1 5 -15 3 -30 -4 -32 -14 -38 -44 -7 -34 11 3 20 3 20 -2 0 -12 -44 -37
-47 -27 -13 37 -20 36 -101 -6 -79 -41 -150 -101 -219 -188 -51 -63 -81 -124
-103 -208 -29 -111 -50 -165 -61 -158 -30 18 8 272 46 304 10 9 12 18 4 37
-14 36 -4 56 22 48 15 -5 25 -1 35 14 9 12 26 21 40 21 20 0 24 5 24 29 0 22
10 37 40 61 51 41 228 130 258 130 12 0 22 4 22 9 0 14 61 27 141 30 60 2 78
-1 89 -14z m-1174 -20 c8 -19 -22 -65 -41 -65 -8 0 -15 9 -15 20 0 11 7 20 15
20 20 0 19 10 -2 26 -16 12 -15 13 10 14 16 0 30 -7 33 -15z m-772 -1 c19 -7
21 -35 4 -52 -17 -17 -38 -15 -38 3 0 8 7 15 15 15 20 0 19 17 -2 29 -20 11
-4 15 21 5z m2546 -39 c9 -10 9 -15 1 -15 -6 0 -11 -7 -11 -16 0 -13 6 -15 28
-9 l27 6 -23 -23 c-23 -23 -23 -23 -38 -4 -15 22 -19 76 -5 76 5 0 14 -7 21
-15z m-340 -33 c0 -10 -7 -27 -15 -38 -14 -18 -14 -17 -15 13 0 17 -3 39 -7
48 -5 15 -3 16 15 6 12 -7 22 -20 22 -29z m-1145 18 c9 -15 -18 -64 -38 -68
-12 -2 -17 3 -17 17 0 12 6 21 15 21 20 0 19 10 -2 26 -16 12 -16 13 9 14 15
0 30 -4 33 -10z m-469 -25 c8 -19 -22 -65 -41 -65 -8 0 -15 9 -15 20 0 11 7
20 15 20 20 0 19 10 -2 26 -16 12 -15 13 10 14 16 0 30 -7 33 -15z m1397 -39
c3 -8 -1 -17 -9 -20 -19 -7 -18 -26 2 -26 8 0 12 -4 9 -10 -3 -5 -15 -10 -26
-10 -15 0 -19 7 -19 33 0 19 3 37 7 40 11 12 31 8 36 -7z m691 -53 c-5 -18 -2
-21 18 -17 22 5 23 5 3 -10 -25 -21 -38 -16 -49 17 -7 18 -6 30 4 42 17 20 32
1 24 -32z m-1776 -16 c8 -9 7 -20 -1 -37 -16 -32 -47 -39 -47 -11 0 12 5 20
11 19 6 -2 14 3 16 10 3 6 0 12 -6 12 -6 0 -11 5 -11 10 0 14 26 12 38 -3z
m709 -24 c4 -9 1 -19 -5 -21 -17 -5 -15 -22 3 -22 22 0 18 -17 -5 -23 -32 -8
-44 22 -26 69 7 19 25 18 33 -3z m261 -36 c2 -10 -3 -17 -12 -17 -9 0 -16 -4
-16 -10 0 -5 7 -10 15 -10 8 0 15 -5 15 -11 0 -6 -10 -9 -22 -7 -15 2 -24 11
-26 26 -6 42 38 70 46 29z m356 -12 c-6 -16 -34 -21 -34 -7 0 13 11 22 26 22
8 0 11 -6 8 -15z m269 -25 c3 -13 0 -20 -9 -20 -22 0 -16 -17 9 -24 l22 -7
-23 -10 c-13 -5 -28 -7 -33 -3 -12 7 -11 41 1 65 14 25 26 24 33 -1z m186 -24
c-15 -16 -10 -26 14 -26 21 -1 21 -1 3 -15 -14 -11 -23 -12 -33 -4 -13 12 -18
61 -7 72 10 10 33 -17 23 -27z m-1304 -157 c-7 -20 9 -27 20 -9 13 21 24 9 13
-15 -6 -14 -17 -25 -24 -25 -19 0 -47 47 -40 65 8 22 38 7 31 -16z m-660 -739
c3 -5 1 -10 -4 -10 -6 0 -11 5 -11 10 0 6 2 10 4 10 3 0 8 -4 11 -10z m272
-56 c-3 -3 -12 -4 -19 -1 -8 3 -5 6 6 6 11 1 17 -2 13 -5z"/>
<path d="M3958 2403 c-34 -17 -36 -33 -4 -33 16 0 26 7 29 22 8 27 8 27 -25
11z"/>
<path d="M2283 6079 c-24 -22 -55 -42 -70 -45 -43 -8 -173 -118 -215 -181 -38
-55 -47 -83 -28 -83 6 0 10 -7 10 -15 0 -8 3 -15 8 -15 4 0 12 -11 19 -25 12
-28 -3 -35 -25 -13 -7 7 -1 -16 13 -51 13 -35 27 -66 29 -68 2 -3 23 8 46 23
36 24 39 29 24 35 -18 7 -18 7 1 14 11 4 29 10 40 14 23 9 68 -7 62 -23 -2 -6
5 -19 15 -28 17 -17 18 -17 18 2 0 11 -4 20 -9 20 -15 0 -20 38 -5 44 9 4 14
-2 14 -16 0 -18 4 -20 33 -14 50 10 156 67 183 99 25 29 26 49 2 29 -32 -26
-160 -58 -215 -53 -22 2 -14 26 22 69 42 48 65 99 65 142 0 26 6 33 34 45 25
11 35 22 40 46 8 40 8 64 0 56 -4 -3 -14 -2 -24 3 -14 8 -17 5 -16 -13 1 -15
7 -22 19 -21 10 1 16 -3 14 -9 -5 -17 -67 -48 -79 -41 -6 4 -9 3 -6 -2 13 -20
-21 -135 -55 -186 -19 -29 -38 -68 -40 -87 -7 -41 -18 -54 -40 -45 -29 11 -21
66 17 115 42 56 66 103 101 204 16 44 33 86 38 93 22 29 -1 18 -40 -19z m-51
-84 c-3 -18 -8 -23 -16 -16 -14 12 -50 -24 -41 -39 10 -16 19 -12 58 24 58 53
43 27 -19 -34 -50 -49 -105 -130 -88 -130 4 0 1 -7 -6 -15 -15 -18 -140 -22
-140 -5 0 18 30 84 48 104 31 34 173 136 191 136 14 0 17 -6 13 -25z m-42
-160 c-17 -25 -35 -43 -40 -40 -5 3 8 28 28 55 45 61 56 48 12 -15z m-50 -80
c0 -8 -9 -15 -20 -15 -25 0 -26 17 -2 23 9 3 18 5 20 6 1 0 2 -6 2 -14z m-67
-12 c13 -8 -14 -33 -35 -33 -23 0 -36 29 -18 40 12 7 31 5 53 -7z m56 -44
c-14 -27 -39 -24 -39 5 0 19 4 22 25 18 21 -3 23 -7 14 -23z m-59 -20 c0 -10
-5 -19 -11 -19 -8 0 -8 -4 0 -14 9 -11 8 -18 -5 -31 -16 -15 -18 -14 -35 12
-23 34 -24 53 -4 53 8 0 15 4 15 8 0 4 9 8 20 9 14 1 20 -4 20 -18z"/>
<path d="M2365 6110 c3 -5 11 -10 16 -10 6 0 7 5 4 10 -3 6 -11 10 -16 10 -6
0 -7 -4 -4 -10z"/>
<path d="M2381 5894 c0 -11 3 -14 6 -6 3 7 2 16 -1 19 -3 4 -6 -2 -5 -13z"/>
<path d="M2375 5829 c-4 -6 -5 -12 -2 -15 2 -3 7 2 10 11 7 17 1 20 -8 4z"/>
<path d="M2097 5600 c-40 -22 -45 -38 -13 -46 36 -9 68 2 88 30 17 24 17 24
-13 28 -17 3 -44 -2 -62 -12z"/>
<path d="M2160 5544 c-36 -25 -59 -63 -60 -101 0 -28 6 -28 48 -3 36 22 55 60
50 101 l-3 27 -35 -24z"/>
<path d="M2301 5563 c-1 -6 -7 -13 -15 -15 -12 -2 -12 -7 -3 -25 12 -22 12
-22 29 8 10 16 14 27 9 24 -5 -3 -12 1 -14 7 -4 9 -6 9 -6 1z"/>
<path d="M2026 5498 c9 -68 25 -99 70 -137 27 -21 52 -32 91 -37 30 -3 56 -4
59 -1 3 3 -8 24 -25 47 -16 23 -31 46 -33 52 -2 6 -20 2 -46 -11 -22 -11 -48
-21 -57 -21 -19 0 -20 35 0 90 8 24 14 44 13 45 -17 9 -61 25 -69 25 -6 0 -7
-20 -3 -52z"/>
<path d="M2226 5506 c-9 -21 -16 -46 -16 -55 0 -21 37 -81 49 -81 5 0 13 21
17 46 5 36 2 56 -13 88 l-20 41 -17 -39z"/>
<path d="M2283 5362 c-6 -20 -11 -37 -10 -38 1 -1 21 1 45 5 l43 6 -33 32 -33
32 -12 -37z"/>
<path d="M2657 5243 c-4 -3 -7 -21 -7 -39 l0 -33 46 16 45 15 -35 24 c-39 26
-40 27 -49 17z"/>
<path d="M2629 5126 c-8 -18 -7 -30 5 -54 18 -35 43 -45 104 -40 l41 3 -27 42
c-15 24 -38 47 -52 52 -57 21 -60 21 -71 -3z"/>
<path d="M2557 5081 c-32 -21 -28 -26 21 -30 34 -3 39 5 20 32 -12 16 -15 16
-41 -2z"/>
<path d="M2467 5012 l-48 -37 58 -10 c32 -6 59 -11 60 -10 1 0 -4 21 -11 47
l-12 46 -47 -36z"/>
<path d="M2557 5022 c-9 -13 4 -56 22 -81 14 -18 31 -25 70 -29 58 -5 63 2 31
53 -14 23 -35 38 -67 49 -54 19 -51 18 -56 8z"/>
<path d="M2337 4893 c-67 -68 -96 -102 -97 -115 0 -3 23 -8 50 -10 28 -1 50
-2 50 -2 0 1 -7 18 -15 38 -9 20 -13 42 -9 48 4 6 30 9 65 6 33 -2 59 -4 59
-4 0 1 -8 25 -18 54 l-17 52 -68 -67z"/>
<path d="M1485 4932 c-46 -29 -85 -80 -85 -111 0 -30 27 -61 53 -61 12 0 17
-9 17 -29 0 -48 52 -87 101 -77 22 4 34 -1 59 -25 20 -20 37 -29 48 -26 83 28
91 33 106 67 9 19 26 50 37 68 17 26 19 36 10 42 -9 5 -8 9 4 14 9 3 19 6 21
6 9 0 3 -49 -6 -55 -26 -16 -5 -23 35 -10 51 15 67 5 39 -26 -22 -24 -17 -29
24 -21 l33 7 -33 43 c-19 25 -53 52 -80 65 -25 12 -48 30 -51 39 -3 10 -13 21
-24 24 -10 3 -36 14 -59 25 -23 10 -58 19 -79 19 -21 0 -43 6 -49 15 -19 25
-87 29 -121 7z m103 -11 c9 -6 4 -14 -21 -31 -18 -13 -49 -45 -68 -71 -38 -54
-48 -58 -74 -29 -15 17 -16 24 -5 50 20 49 74 90 118 90 20 0 43 -4 50 -9z
m112 -31 c25 0 25 0 -8 -26 -41 -33 -79 -98 -88 -151 -6 -41 -8 -43 -42 -43
-40 0 -82 32 -82 62 0 73 111 176 175 162 11 -2 31 -4 45 -4z m95 -43 c36 -27
-4 -149 -65 -201 -38 -31 -63 -33 -90 -6 -25 25 -26 69 0 124 36 80 107 117
155 83z"/>
<path d="M2450 4926 c0 -24 29 -89 43 -98 13 -9 117 -11 117 -3 0 18 -56 85
-78 94 -57 22 -82 24 -82 7z"/>
<path d="M2626 4870 c3 -8 9 -23 11 -32 7 -24 12 -23 56 15 l39 33 -56 0 c-46
-1 -55 -4 -50 -16z"/>
<path d="M2350 4821 c0 -10 10 -33 23 -52 21 -31 27 -34 80 -37 31 -2 57 0 57
3 0 3 -10 21 -22 40 -17 27 -35 39 -72 50 -63 19 -66 19 -66 -4z"/>
<path d="M2536 4759 l16 -31 31 28 c18 16 34 30 36 32 2 1 -19 2 -48 2 l-52 0
17 -31z"/>
<path d="M2201 4729 c-12 -19 -21 -37 -21 -41 0 -5 18 -8 39 -8 l40 0 -16 38
c-20 49 -19 49 -42 11z"/>
<path d="M2270 4736 c0 -25 27 -73 45 -80 25 -9 95 -7 95 3 0 16 -43 63 -67
72 -55 21 -73 22 -73 5z"/>
<path d="M1871 4716 c-32 -11 -71 -48 -71 -67 0 -16 76 29 94 55 9 14 15 26
14 25 -2 0 -18 -6 -37 -13z"/>
<path d="M2434 4679 c7 -17 17 -30 22 -28 12 2 64 46 64 53 0 3 -22 6 -50 6
l-49 0 13 -31z"/>
<path d="M1957 4654 l-28 -24 30 0 c36 0 40 -13 11 -33 -21 -14 -21 -15 -1
-20 11 -2 22 -2 25 1 8 7 6 63 -2 84 -6 15 -10 14 -35 -8z"/>
<path d="M1874 4656 c-31 -14 -50 -33 -41 -42 6 -6 93 32 101 45 10 15 -22 13
-60 -3z"/>
<path d="M2146 4629 c-19 -46 -12 -59 32 -59 25 0 25 7 -3 73 l-12 29 -17 -43z"/>
<path d="M2208 4635 c8 -46 46 -75 97 -75 25 0 45 2 45 5 0 23 -50 75 -81 84
-56 17 -67 15 -61 -14z"/>
<path d="M1793 4623 c-15 -5 -17 -23 -4 -23 5 0 11 7 15 15 3 8 4 15 3 14 -1
0 -8 -3 -14 -6z"/>
<path d="M2367 4603 c9 -16 18 -29 18 -30 1 -2 14 11 30 27 l29 30 -47 0 -47
0 17 -27z"/>
<path d="M1879 4603 c-19 -9 -29 -17 -22 -20 15 -5 90 15 97 26 9 14 -38 10
-75 -6z"/>
<path d="M1813 4594 c-18 -8 5 -54 23 -47 19 7 18 23 -1 23 -9 0 -12 6 -9 15
6 16 6 16 -13 9z"/>
<path d="M1883 4560 c-13 -5 -23 -12 -23 -15 0 -12 78 -4 96 10 18 13 17 14
-16 14 -19 0 -45 -4 -57 -9z"/>
<path d="M1970 4540 c-16 -12 -41 -20 -67 -20 -24 0 -43 -4 -43 -10 0 -5 20
-10 44 -10 25 0 48 5 51 10 3 6 17 10 31 10 17 0 24 5 24 20 0 25 -8 25 -40 0z"/>
<path d="M2150 4552 c0 -6 10 -20 22 -32 16 -15 35 -20 77 -20 l56 0 -30 25
c-16 13 -37 24 -46 25 -9 0 -31 3 -48 6 -19 4 -31 2 -31 -4z"/>
<path d="M2114 4526 c-8 -21 -1 -29 24 -24 18 3 18 4 1 22 -17 17 -19 18 -25
2z"/>
<path d="M2313 4528 c2 -7 10 -13 17 -13 7 0 15 6 18 13 2 7 -5 12 -18 12 -13
0 -20 -5 -17 -12z"/>
<path d="M1967 4491 c-17 -6 -16 -8 7 -19 23 -10 26 -9 26 8 0 21 -4 23 -33
11z"/>
<path d="M1838 4477 c-16 -6 -28 -14 -28 -19 0 -4 11 -2 25 4 18 8 35 8 58 1
18 -5 41 -7 52 -3 16 6 14 8 -15 18 -39 14 -55 14 -92 -1z"/>
<path d="M2278 4482 l-36 -3 25 -25 c14 -14 26 -24 27 -22 0 2 7 14 14 26 16
28 17 28 -30 24z"/>
<path d="M2140 4475 c0 -11 23 -50 34 -57 15 -10 86 -10 86 0 0 18 -47 51 -82
57 -21 4 -38 4 -38 0z"/>
<path d="M2100 4445 c0 -18 5 -25 20 -25 20 0 20 1 4 25 -9 14 -18 25 -20 25
-2 0 -4 -11 -4 -25z"/>
<path d="M1846 4441 c6 -6 35 -14 65 -17 68 -7 47 11 -26 21 -37 6 -47 4 -39
-4z"/>
<path d="M1975 4440 c-3 -5 1 -10 9 -10 9 0 16 5 16 10 0 6 -4 10 -9 10 -6 0
-13 -4 -16 -10z"/>
<path d="M1786 4424 c-5 -12 -2 -15 10 -10 8 3 21 6 27 6 7 0 6 4 -3 10 -21
14 -27 12 -34 -6z"/>
<path d="M1817 4399 c-10 -6 -24 -8 -32 -5 -10 3 -19 -11 -30 -51 -9 -30 -15
-56 -13 -58 2 -1 19 9 38 22 32 23 33 24 12 30 -26 6 -29 21 -4 30 9 4 20 10
23 15 3 5 26 4 51 -2 25 -7 54 -10 64 -8 16 3 13 7 -13 21 -36 19 -70 21 -96
6z"/>
<path d="M1940 4401 c0 -15 38 -20 44 -5 4 10 -2 14 -19 14 -14 0 -25 -4 -25
-9z"/>
<path d="M2130 4391 c0 -26 49 -61 85 -61 41 0 44 8 13 37 -27 25 -98 42 -98
24z"/>
<path d="M2100 4362 c0 -25 4 -32 20 -32 20 0 20 1 3 28 -9 15 -18 29 -20 31
-2 2 -3 -10 -3 -27z"/>
<path d="M1810 4351 c0 -13 71 -28 100 -21 24 6 24 6 -9 18 -40 14 -91 16 -91
3z"/>
<path d="M1940 4351 c0 -5 7 -11 15 -15 9 -3 15 0 15 9 0 8 -7 15 -15 15 -8 0
-15 -4 -15 -9z"/>
<path d="M1930 4310 c-23 -5 -23 -7 -6 -13 11 -4 24 -3 30 3 14 14 5 18 -24
10z"/>
<path d="M1803 4298 c-12 -6 -24 -16 -27 -24 -8 -21 77 -30 115 -11 l31 14
-48 17 c-26 9 -48 16 -48 15 -1 0 -11 -5 -23 -11z"/>
<path d="M2136 4282 c10 -18 26 -33 36 -34 70 -7 77 -5 68 12 -15 28 -34 39
-79 46 l-44 7 19 -31z"/>
<path d="M1925 4250 c-18 -19 -17 -20 3 -20 15 0 22 6 22 20 0 11 -2 20 -3 20
-2 0 -12 -9 -22 -20z"/>
<path d="M2110 4255 c0 -8 4 -15 10 -15 5 0 7 7 4 15 -4 8 -8 15 -10 15 -2 0
-4 -7 -4 -15z"/>
<path d="M1730 4200 c0 -74 23 -139 63 -178 l33 -32 15 49 15 50 -48 -6 c-53
-6 -59 1 -34 49 13 25 12 27 -10 32 -29 8 -32 36 -4 54 27 16 25 29 -5 34 -24
5 -25 4 -25 -52z"/>
<path d="M905 4234 c-18 -8 -48 -11 -77 -7 -34 4 -54 1 -76 -13 -34 -20 -42
-38 -42 -106 0 -53 -15 -94 -38 -103 -18 -7 -36 7 -63 51 -39 64 -69 31 -69
-78 0 -50 5 -67 25 -94 28 -36 33 -74 10 -74 -8 0 -31 11 -51 25 -52 36 -68
30 -72 -25 -2 -38 2 -51 29 -83 17 -21 48 -46 69 -57 21 -11 49 -34 61 -51 13
-18 49 -58 80 -88 59 -58 84 -95 75 -110 -5 -7 40 -186 70 -283 4 -13 -8 -10
-53 14 -66 34 -93 55 -93 74 0 7 8 26 18 43 22 40 9 63 -44 75 -21 5 -53 15
-71 22 -17 8 -36 14 -42 14 -18 0 -33 -40 -26 -70 4 -16 1 -45 -6 -65 -12 -32
-11 -37 11 -60 30 -32 65 -32 114 1 21 15 41 22 45 17 8 -12 121 -88 144 -96
9 -4 22 -19 28 -34 9 -23 7 -30 -7 -38 -46 -27 -74 -58 -74 -83 0 -14 14 -49
30 -79 36 -64 41 -123 10 -123 -11 0 -37 7 -57 15 -48 20 -63 19 -63 -5 0 -27
42 -110 67 -132 10 -10 35 -24 55 -32 69 -29 59 -61 -19 -61 -58 0 -75 -20
-49 -60 26 -40 89 -65 169 -65 47 0 79 -6 106 -19 21 -11 62 -22 93 -24 30 -2
65 -11 78 -20 21 -15 143 -188 136 -194 -1 -2 -35 5 -74 15 -39 10 -69 15 -66
11 2 -4 41 -17 87 -29 60 -16 87 -29 100 -47 19 -24 18 -25 -7 -62 -40 -57
-35 -75 40 -146 82 -79 83 -99 4 -103 -72 -4 -86 -16 -60 -52 39 -55 91 -85
155 -90 50 -4 60 -8 60 -23 0 -12 -16 -26 -45 -40 -55 -27 -64 -56 -24 -82 34
-22 133 -17 184 10 24 12 54 17 96 16 34 -1 74 3 90 10 56 21 88 13 193 -50
56 -34 105 -61 109 -61 4 0 31 -15 60 -34 l54 -33 -64 -13 c-34 -7 -67 -16
-72 -20 -4 -5 25 -2 65 6 41 8 76 14 77 14 2 0 1 -33 -3 -72 -6 -66 -4 -76 17
-108 27 -40 71 -59 140 -59 26 -1 66 -8 88 -17 33 -13 40 -21 40 -43 0 -22
-10 -34 -55 -62 -57 -35 -77 -65 -54 -80 25 -16 83 -28 149 -31 59 -3 70 0
116 30 28 17 60 32 71 32 28 0 37 -36 14 -59 -33 -33 -51 -66 -51 -93 0 -34
12 -41 67 -40 76 1 141 53 216 174 10 16 43 41 75 57 37 19 69 45 91 75 19 25
51 57 71 70 34 22 48 25 166 27 101 2 129 -1 129 -11 0 -15 -9 -20 -90 -50
-65 -24 -265 -139 -265 -152 0 -16 27 -7 78 28 74 49 178 101 235 116 44 11
49 11 68 -9 21 -21 21 -21 3 -46 -11 -14 -39 -35 -64 -47 -68 -33 -165 -105
-197 -147 -27 -34 -63 -110 -63 -132 0 -5 30 3 68 17 61 23 69 29 89 71 19 39
33 52 90 83 81 44 104 61 153 111 29 29 44 37 73 37 42 0 42 -1 23 -38 -19
-37 -76 -88 -171 -157 -44 -32 -87 -67 -97 -79 -15 -19 -15 -23 9 -71 33 -64
29 -62 54 -31 31 40 79 84 121 113 l37 25 48 -42 c29 -25 81 -55 130 -75 l82
-33 24 43 24 43 -27 5 c-42 9 -133 54 -171 86 l-34 29 17 36 c10 20 21 36 26
36 4 0 24 -16 43 -36 18 -20 65 -52 103 -71 38 -19 83 -45 99 -56 l29 -22 -24
-6 c-13 -4 21 -7 75 -8 90 -1 96 0 86 16 -13 21 -107 83 -199 131 -93 49 -148
97 -160 141 -13 48 -12 72 4 93 12 17 16 17 67 -1 71 -24 148 -63 233 -118 65
-42 92 -50 67 -19 -23 28 -217 135 -291 161 -33 11 -30 12 47 11 46 -1 83 -4
83 -7 0 -8 138 -89 228 -134 48 -24 81 -34 95 -30 16 5 18 4 8 -3 -19 -13 154
-69 240 -78 76 -7 141 14 297 97 53 29 123 62 156 74 l58 22 -93 6 c-52 3
-106 11 -122 18 l-27 12 27 19 c16 11 57 32 93 49 96 43 115 55 113 67 -2 6 3
9 10 6 20 -7 80 56 67 71 -8 9 -2 16 20 25 25 11 36 10 58 -1 44 -22 82 -61
82 -86 0 -28 30 -60 65 -69 43 -11 75 4 91 41 19 46 18 52 -11 80 -28 29 -79
33 -113 9 -21 -14 -24 -14 -53 10 -17 14 -37 26 -45 26 -30 0 -11 17 72 62 95
53 86 51 321 42 128 -6 148 -4 206 15 110 37 157 106 192 281 4 19 17 53 28
75 19 38 19 39 1 25 -10 -8 -25 -21 -32 -28 -16 -15 -39 -16 -47 -1 -4 6 9 36
28 67 19 31 37 69 41 84 3 14 18 40 32 57 21 26 23 31 9 31 -14 0 -15 3 -5 15
18 22 140 -4 140 -31 0 -29 38 -54 83 -54 55 0 77 22 77 77 0 32 -5 44 -25 57
-38 25 -79 20 -110 -12 -25 -27 -29 -28 -68 -18 -23 5 -44 11 -46 13 -12 8 55
96 85 110 19 9 34 21 34 25 0 5 5 6 10 3 6 -4 16 -3 23 2 7 5 53 25 102 43
119 44 212 101 253 155 19 25 49 86 67 137 50 142 63 175 90 229 14 27 24 49
21 49 -2 0 -34 -11 -71 -25 -37 -14 -83 -26 -101 -27 -19 -1 -34 -6 -34 -11 0
-6 -3 -7 -7 -3 -13 13 -11 245 2 256 6 5 38 12 70 16 46 6 60 4 69 -8 22 -30
55 -40 90 -28 50 16 70 43 62 82 -9 45 -33 68 -73 68 -39 0 -83 -37 -83 -70 0
-17 -6 -20 -45 -20 -25 0 -48 0 -52 0 -30 2 32 128 78 158 19 13 33 28 31 34
-1 5 1 7 6 4 13 -8 166 122 202 171 63 85 69 166 23 281 -14 35 -28 82 -30
103 l-6 40 -26 -32 c-22 -26 -33 -31 -54 -27 -31 6 -33 3 -12 -18 8 -9 15 -21
15 -27 0 -6 -7 -1 -17 12 -9 14 -17 46 -18 75 -1 28 -9 65 -17 81 -9 17 -19
47 -23 68 -4 20 -10 37 -12 37 -13 0 -47 -48 -69 -95 -17 -37 -54 -222 -54
-270 0 -2 -9 -3 -19 -2 -11 0 -19 4 -18 7 3 9 -36 69 -42 65 -3 -2 -19 19 -36
46 -28 47 -47 60 -60 39 -3 -5 4 -44 15 -86 21 -72 21 -79 6 -118 -22 -58 -20
-99 8 -159 13 -29 40 -86 59 -127 43 -92 51 -134 37 -196 -17 -75 -25 -79 -74
-42 -55 44 -57 46 -50 98 8 62 -17 94 -71 92 -49 -2 -67 -20 -67 -67 0 -48 29
-78 75 -79 23 -1 46 -12 71 -34 20 -18 41 -32 46 -32 21 0 8 -27 -31 -65 -35
-34 -122 -193 -153 -279 -6 -18 -8 -18 -23 -3 -13 13 -14 19 -4 30 6 8 11 19
9 23 -1 5 13 39 32 75 38 76 36 105 -7 94 -76 -19 -194 -180 -237 -324 -23
-78 -22 -257 3 -336 21 -68 16 -97 -26 -158 -16 -22 -34 -50 -42 -62 -11 -17
-36 -28 -99 -44 -104 -25 -119 -35 -183 -116 -31 -40 -58 -65 -70 -65 -19 0
-26 15 -10 24 4 3 11 31 15 63 4 31 14 86 24 121 14 55 15 64 2 72 -21 13 -44
-11 -91 -97 -47 -85 -70 -109 -110 -118 -36 -8 -74 -57 -95 -121 -9 -27 -22
-63 -30 -81 -8 -17 -14 -39 -14 -50 -1 -29 -44 -126 -73 -165 -15 -19 -43 -43
-62 -54 -38 -20 -52 -43 -33 -55 8 -5 -8 -17 -47 -35 -56 -26 -69 -28 -210
-29 -154 -1 -173 -4 -374 -61 -136 -39 -209 -27 -95 16 56 20 109 35 233 65
121 29 201 57 201 70 0 40 -133 32 -403 -25 -54 -11 -144 -66 -181 -111 -14
-16 -28 -29 -32 -29 -4 0 -17 -9 -28 -19 -17 -16 -38 -20 -107 -22 -48 -1 -92
1 -98 5 -6 4 -48 0 -93 -10 -50 -10 -104 -14 -135 -11 -32 3 -55 1 -59 -5 -4
-6 -13 3 -20 21 -16 39 -69 71 -114 70 -21 -1 -27 -3 -14 -6 17 -3 23 -13 27
-41 6 -44 0 -190 -9 -203 -3 -5 -27 -9 -54 -9 l-48 0 -7 76 c-9 87 -1 164 18
176 8 5 3 8 -13 8 -38 0 -88 -35 -107 -77 l-18 -38 -130 -6 c-72 -3 -143 -11
-160 -18 -48 -21 -168 -16 -218 8 -74 37 -130 98 -181 198 -14 28 -30 54 -36
58 -15 9 -12 0 9 -37 35 -59 70 -239 52 -267 -10 -16 -70 -11 -163 15 -55 16
-58 18 -58 48 0 17 -11 69 -26 116 -14 47 -29 96 -33 110 -5 19 -13 25 -35 25
-16 0 -34 8 -42 19 -8 11 -14 16 -14 11 0 -5 7 -17 16 -26 17 -19 19 -28 31
-126 7 -63 -9 -75 -64 -49 -19 9 -40 13 -46 10 -7 -4 -9 -4 -5 0 3 4 -14 26
-38 48 -49 45 -127 151 -148 202 -13 31 -13 33 25 65 52 43 51 67 -6 119 -25
22 -45 45 -45 50 0 5 -11 15 -25 22 -22 12 -27 11 -44 -4 -11 -10 -23 -31 -26
-47 -4 -16 -16 -34 -27 -40 -11 -6 -26 -25 -33 -42 -11 -26 -11 -36 1 -58 17
-33 32 -39 100 -39 53 0 56 -1 69 -34 12 -29 11 -106 -2 -106 -18 0 -215 112
-249 142 -11 10 -44 25 -72 33 -65 20 -119 66 -145 124 -15 34 -19 66 -19 135
l0 91 -13 -61 c-14 -64 -59 -164 -74 -164 -5 0 -34 25 -65 55 l-56 56 19 37
c10 20 22 53 26 72 3 19 12 50 18 68 10 29 9 36 -4 46 -9 6 -19 20 -22 31 -3
13 -5 7 -6 -15 -2 -39 -32 -113 -52 -125 -15 -10 -54 36 -69 80 -6 17 -11 60
-13 95 -2 57 -4 65 -21 65 -14 0 -22 -10 -29 -35 l-9 -35 -29 35 c-42 50 -139
186 -139 197 -1 4 -23 25 -50 46 -95 73 -116 187 -57 308 36 74 34 97 -2 34
-16 -27 -50 -70 -76 -95 l-46 -45 -23 28 c-12 15 -31 51 -41 79 -16 46 -17 51
-2 60 28 15 133 161 119 166 -7 2 -13 16 -13 30 -2 23 -2 24 -6 5 -5 -26 -81
-105 -97 -100 -6 2 -17 23 -25 46 -12 38 -11 51 4 109 29 111 29 112 12 112
-8 0 -22 -11 -31 -25 -9 -14 -20 -25 -25 -25 -10 0 -97 276 -110 350 -5 30
-14 68 -20 83 -17 43 -13 117 8 162 22 47 68 91 134 129 66 38 59 48 -10 14
-66 -32 -161 -48 -172 -29 -4 7 -4 35 0 64 14 90 16 94 48 95 16 0 53 10 83
22 29 12 63 26 76 31 12 5 22 17 22 28 0 11 5 23 10 26 6 3 10 11 10 17 0 6
-10 2 -22 -9 -22 -20 -115 -46 -130 -37 -36 23 35 138 120 194 44 29 18 56
-33 34z m-88 -280 c-16 -8 -36 -13 -45 -11 -11 2 -5 7 18 14 50 16 59 15 27
-3z m-97 -51 c0 -5 -3 -18 -6 -31 -5 -17 -9 -20 -20 -11 -10 8 -11 15 -1 30
12 19 27 26 27 12z m6226 -39 c-4 -14 -9 -24 -12 -21 -3 2 -2 17 2 31 3 15 9
25 11 22 3 -3 2 -17 -1 -32z m-6244 -67 c-6 -22 -6 -22 -13 3 -12 43 -10 58 5
37 8 -10 11 -28 8 -40z m6239 -32 c5 4 9 1 9 -5 0 -7 -7 -10 -15 -6 -10 3 -17
-3 -21 -20 -4 -14 -8 -23 -11 -21 -2 2 2 26 9 53 11 41 13 44 16 21 2 -15 8
-25 13 -22z m39 1 c0 -3 -4 -8 -10 -11 -5 -3 -10 -1 -10 4 0 6 5 11 10 11 6 0
10 -2 10 -4z m10 -33 c0 -5 -5 -15 -10 -23 -8 -12 -10 -11 -10 8 0 12 5 22 10
22 6 0 10 -3 10 -7z m87 -25 c-3 -8 -6 -5 -6 6 -1 11 2 17 5 13 3 -3 4 -12 1
-19z m-127 -23 c0 -5 -5 -3 -10 5 -5 8 -10 20 -10 25 0 6 5 3 10 -5 5 -8 10
-19 10 -25z m158 -51 l-3 -39 -5 47 c-3 26 -1 43 3 39 5 -5 7 -26 5 -47z
m-415 31 c-3 -9 -8 -14 -10 -11 -3 3 -2 9 2 15 9 16 15 13 8 -4z m434 -37 c-3
-7 -5 -2 -5 12 0 14 2 19 5 13 2 -7 2 -19 0 -25z m-250 0 c-3 -8 -6 -5 -6 6
-1 11 2 17 5 13 3 -3 4 -12 1 -19z m-174 -13 c-3 -9 -8 -14 -10 -11 -3 3 -2 9
2 15 9 16 15 13 8 -4z m264 -17 c-3 -7 -5 -2 -5 12 0 14 2 19 5 13 2 -7 2 -19
0 -25z m-100 -10 c-3 -8 -6 -5 -6 6 -1 11 2 17 5 13 3 -3 4 -12 1 -19z m-159
-93 c-3 -3 -9 2 -12 12 -6 14 -5 15 5 6 7 -7 10 -15 7 -18z m342 21 c0 -3 -4
-8 -10 -11 -5 -3 -10 -1 -10 4 0 6 5 11 10 11 6 0 10 -2 10 -4z m31 -39 c-10
-9 -11 -8 -5 6 3 10 9 15 12 12 3 -3 0 -11 -7 -18z m-358 -47 c4 -30 3 -38 -3
-25 -8 19 -14 83 -6 74 2 -2 6 -24 9 -49z m197 30 c-6 -11 -13 -20 -16 -20 -2
0 0 9 6 20 6 11 13 20 16 20 2 0 0 -9 -6 -20z m101 -7 c-12 -20 -14 -14 -5 12
4 9 9 14 11 11 3 -2 0 -13 -6 -23z m5 -35 c4 -7 3 -8 -5 -4 -6 4 -20 2 -29 -6
-15 -12 -16 -11 -3 5 16 20 27 22 37 5z m-54 -45 c-6 -2 -9 -10 -6 -15 4 -7 2
-8 -5 -4 -13 9 -5 26 12 25 9 0 8 -2 -1 -6z m-6368 -28 c6 -15 -9 -30 -40 -39
-24 -7 -38 20 -23 46 10 18 55 13 63 -7z m6220 -10 c-19 -29 -34 -32 -34 -7 0
13 2 14 9 3 7 -11 10 -9 16 8 3 11 11 21 16 21 5 0 2 -11 -7 -25z m111 -5
c-10 -11 -20 -18 -23 -16 -5 6 21 35 32 36 5 0 1 -9 -9 -20z m-6255 -3 c31
-16 29 -48 -6 -95 -32 -41 -79 -66 -111 -58 -53 14 -44 92 14 120 19 9 36 23
39 31 7 18 31 19 64 2z m6162 -19 c-7 -7 -12 -8 -12 -2 0 14 12 26 19 19 2 -3
-1 -11 -7 -17z m-243 -49 c30 -54 -19 -115 -72 -88 -30 16 -37 28 -37 65 0 40
18 56 60 52 25 -2 38 -10 49 -29z m201 -30 c-11 -21 -22 -39 -24 -39 -9 0 0
26 16 49 10 13 14 29 11 34 -3 6 -1 7 5 3 9 -5 6 -18 -8 -47z m205 -89 c20
-39 19 -53 -7 -77 -54 -48 -118 -31 -118 32 0 40 38 75 81 75 21 0 32 -7 44
-30z m-299 -252 c-18 -26 -22 -17 -5 14 6 11 13 17 16 15 3 -3 -2 -16 -11 -29z
m-35 -55 c-12 -20 -14 -14 -5 12 4 9 9 14 11 11 3 -2 0 -13 -6 -23z m-5681
-36 c0 -2 -10 -12 -21 -23 -22 -19 -22 -19 -8 4 12 19 29 30 29 19z m5440 -38
c-7 -11 -14 -18 -17 -15 -3 3 0 12 7 21 18 21 23 19 10 -6z m286 -7 c-17 -16
-18 -16 -5 5 7 12 15 20 18 17 3 -2 -3 -12 -13 -22z m-108 -16 c-13 -19 -24
-33 -26 -31 -5 4 37 65 44 65 2 0 -6 -15 -18 -34z m23 -13 c-12 -20 -14 -14
-5 12 4 9 9 14 11 11 3 -2 0 -13 -6 -23z m-194 -5 c-3 -8 -6 -5 -6 6 -1 11 2
17 5 13 3 -3 4 -12 1 -19z m-5492 -45 c5 -17 2 -23 -9 -23 -11 0 -16 10 -16
32 0 34 13 29 25 -9z m5889 12 c-9 -14 -19 -23 -22 -20 -5 4 26 45 35 45 2 0
-4 -11 -13 -25z m-383 -8 c-10 -9 -11 -8 -5 6 3 10 9 15 12 12 3 -3 0 -11 -7
-18z m-94 -17 c-7 -17 -13 -26 -15 -21 -3 10 15 51 22 51 3 0 -1 -14 -7 -30z
m495 8 c-7 -7 -12 -8 -12 -2 0 14 12 26 19 19 2 -3 -1 -11 -7 -17z m-257 -8
c-3 -5 -11 -10 -16 -10 -6 0 -7 5 -4 10 3 6 11 10 16 10 6 0 7 -4 4 -10z m202
-15 c-4 -8 -2 -17 3 -20 6 -4 10 -12 10 -18 0 -7 -7 -4 -15 6 -12 17 -11 47 2
47 3 0 3 -7 0 -15z m-377 -22 c-13 -23 -65 -82 -54 -63 9 17 58 80 62 80 1 0
-2 -8 -8 -17z m-5450 -14 c17 -30 8 -31 -19 -3 -18 19 -20 24 -7 24 8 0 20 -9
26 -21z m5560 1 c0 -5 -5 -10 -11 -10 -5 0 -7 5 -4 10 3 6 8 10 11 10 2 0 4
-4 4 -10z m-16 -36 c3 -8 2 -12 -4 -9 -6 3 -10 10 -10 16 0 14 7 11 14 -7z
m96 -44 c-6 -12 -14 -20 -17 -17 -2 3 1 14 8 26 17 26 24 19 9 -9z m-267 -5
c4 10 10 15 14 12 8 -9 -17 -38 -28 -31 -5 3 -9 13 -8 22 0 14 2 14 8 -2 7
-19 8 -19 14 -1z m377 6 c0 -5 -7 -11 -15 -15 -15 -5 -20 5 -8 17 9 10 23 9
23 -2z m-260 -26 c7 -9 8 -15 2 -15 -5 0 -12 7 -16 15 -3 8 -4 15 -2 15 2 0 9
-7 16 -15z m-131 -32 c0 -5 -4 -17 -9 -28 -8 -18 -9 -17 -9 8 -1 15 4 27 9 27
6 0 10 -3 9 -7z m404 -8 c-3 -9 -8 -14 -10 -11 -3 3 -2 9 2 15 9 16 15 13 8
-4z m30 0 c-3 -9 -8 -14 -10 -11 -3 3 -2 9 2 15 9 16 15 13 8 -4z m-369 -59
c-3 -15 -8 -25 -11 -23 -2 3 -1 17 3 31 3 15 8 25 11 23 2 -3 1 -17 -3 -31z
m104 -1 c-23 -27 -34 -33 -22 -12 14 23 26 37 35 37 5 0 -1 -11 -13 -25z m152
21 c0 -2 -8 -10 -17 -17 -16 -13 -17 -12 -4 4 13 16 21 21 21 13z m69 -19 c-2
-2 -20 -12 -39 -24 -32 -18 -36 -18 -36 -3 0 10 6 15 16 13 8 -2 24 3 35 11
11 8 22 12 24 10 2 -2 2 -5 0 -7z m-109 -31 c0 -2 -7 -7 -16 -10 -8 -3 -12 -2
-9 4 6 10 25 14 25 6z m-238 -28 c-7 -7 -12 -8 -12 -2 0 14 12 26 19 19 2 -3
-1 -11 -7 -17z m253 2 c-3 -5 -11 -10 -16 -10 -6 0 -7 5 -4 10 3 6 11 10 16
10 6 0 7 -4 4 -10z m-60 -10 c3 -5 1 -10 -4 -10 -6 0 -11 5 -11 10 0 6 2 10 4
10 3 0 8 -4 11 -10z m-175 -24 c0 -8 -9 -24 -20 -37 l-19 -24 17 38 c17 40 22
45 22 23z m150 10 c0 -3 -4 -8 -10 -11 -5 -3 -10 -1 -10 4 0 6 5 11 10 11 6 0
10 -2 10 -4z m-42 -23 c-10 -2 -18 -9 -18 -15 0 -6 -3 -9 -6 -5 -10 10 6 27
24 26 15 -1 15 -2 0 -6z m-162 -31 c-18 -16 -18 -16 -6 6 6 13 14 21 18 18 3
-4 -2 -14 -12 -24z m142 -158 c27 -18 30 -69 5 -96 -35 -39 -123 -13 -123 37
0 59 69 94 118 59z m-645 -113 c-5 -19 -53 -71 -53 -57 0 6 52 76 57 76 0 0
-1 -9 -4 -19z m-29 -116 c-4 -8 -8 -15 -10 -15 -2 0 -4 7 -4 15 0 8 4 15 10
15 5 0 7 -7 4 -15z m306 0 c-7 -9 -15 -13 -17 -11 -7 7 7 26 19 26 6 0 6 -6
-2 -15z m-4519 -22 c-12 -20 -14 -14 -5 12 4 9 9 14 11 11 3 -2 0 -13 -6 -23z
m4162 -7 c4 -10 1 -13 -9 -9 -7 3 -14 9 -14 14 0 14 17 10 23 -5z m302 -6 c-3
-5 -12 -10 -18 -10 -7 0 -6 4 3 10 19 12 23 12 15 0z m-368 -15 c0 -8 -4 -12
-9 -9 -5 3 -6 10 -3 15 9 13 12 11 12 -6z m133 1 c0 -2 -8 -10 -17 -17 -16
-13 -17 -12 -4 4 13 16 21 21 21 13z m-40 -30 c0 -3 -4 -8 -10 -11 -5 -3 -10
-1 -10 4 0 6 5 11 10 11 6 0 10 -2 10 -4z m190 0 c0 -2 -7 -7 -16 -10 -8 -3
-12 -2 -9 4 6 10 25 14 25 6z m122 -28 c-8 -8 -9 -4 -5 13 4 13 8 18 11 10 2
-7 -1 -18 -6 -23z m-4484 -16 c13 -20 13 -22 -6 -22 -13 0 -21 8 -25 25 -5 30
10 29 31 -3z m4372 18 c0 -5 -5 -10 -11 -10 -5 0 -7 5 -4 10 3 6 8 10 11 10 2
0 4 -4 4 -10z m-3738 -27 c10 -9 18 -22 18 -29 0 -15 -28 -31 -47 -28 -7 1
-19 2 -27 3 -25 2 2 71 27 71 6 0 19 -7 29 -17z m3443 -3 c-3 -5 -12 -10 -18
-10 -7 0 -6 4 3 10 19 12 23 12 15 0z m195 0 c0 -5 -10 -15 -22 -21 -23 -12
-23 -12 -4 10 21 23 26 26 26 11z m-4215 -40 c18 -20 18 -20 -13 -9 -18 6 -32
15 -32 20 0 16 26 10 45 -11z m3965 10 c0 -5 -2 -10 -4 -10 -3 0 -8 5 -11 10
-3 6 -1 10 4 10 6 0 11 -4 11 -10z m350 -10 c0 -5 -5 -10 -11 -10 -5 0 -7 5
-4 10 3 6 8 10 11 10 2 0 4 -4 4 -10z m124 -4 c-3 -8 -13 -17 -22 -21 -13 -5
-13 -2 3 15 21 24 26 25 19 6z m-494 -4 c0 -10 -22 -32 -32 -32 -5 0 -3 9 4
20 13 20 28 27 28 12z m-3293 -26 c24 -21 26 -27 18 -52 -22 -61 -161 -98
-205 -54 -46 46 -6 110 69 110 25 0 53 5 61 10 21 14 26 13 57 -14z m3420 8
c-3 -3 -12 -4 -19 -1 -8 3 -5 6 6 6 11 1 17 -2 13 -5z m197 -21 c-12 -12 -20
-13 -37 -5 -22 11 -22 11 3 9 15 -1 24 3 23 10 -2 7 4 10 12 7 13 -5 12 -8 -1
-21z m126 -7 c0 -2 -8 -10 -17 -17 -16 -13 -17 -12 -4 4 13 16 21 21 21 13z
m-400 -19 c0 -2 -10 -12 -22 -23 l-23 -19 19 23 c18 21 26 27 26 19z m240 -2
c0 -2 -10 -10 -22 -16 -21 -11 -22 -11 -9 4 13 16 31 23 31 12z m-216 -40 c11
-8 15 -15 10 -15 -6 0 -19 7 -30 15 -10 8 -14 14 -9 14 6 0 19 -6 29 -14z
m311 5 c-3 -5 -12 -10 -18 -10 -7 0 -6 4 3 10 19 12 23 12 15 0z m15 -20 c0
-5 -5 -10 -11 -10 -5 0 -7 5 -4 10 3 6 8 10 11 10 2 0 4 -4 4 -10z m80 0 c0
-5 -7 -7 -15 -4 -8 4 -15 8 -15 10 0 2 7 4 15 4 8 0 15 -4 15 -10z m-355 -15
c-22 -8 -44 -14 -50 -14 -18 1 49 28 70 28 11 0 2 -6 -20 -14z m329 -19 c-21
-15 -30 -14 -19 3 3 6 14 11 23 11 13 0 13 -2 -4 -14z m-149 -16 c3 -6 -1 -7
-9 -4 -18 7 -21 14 -7 14 6 0 13 -4 16 -10z m82 -6 c-3 -3 -12 -4 -19 -1 -8 3
-5 6 6 6 11 1 17 -2 13 -5z m-463 -13 c19 -7 19 -8 -2 -13 -14 -4 -20 -2 -16
4 4 6 -2 8 -17 3 -19 -5 -21 -4 -9 4 17 12 18 12 44 2z m324 -21 c8 0 13 -2
10 -5 -3 -3 -20 -2 -38 2 -28 5 -31 8 -15 13 11 4 22 3 23 -1 2 -5 11 -9 20
-9z m82 16 c0 -2 -7 -7 -16 -10 -8 -3 -12 -2 -9 4 6 10 25 14 25 6z m65 -6
c-3 -5 -14 -10 -23 -9 -14 0 -13 2 3 9 27 11 27 11 20 0z m-515 -20 c-20 -13
-33 -13 -25 0 3 6 14 10 23 10 15 0 15 -2 2 -10z m228 -7 c-10 -2 -28 -2 -40
0 -13 2 -5 4 17 4 22 1 32 -1 23 -4z m190 -10 c-10 -2 -28 -2 -40 0 -13 2 -5
4 17 4 22 1 32 -1 23 -4z m-443 -13 c-3 -6 -21 -17 -38 -26 -36 -19 -31 -9 10
17 34 21 36 22 28 9z m-612 -67 c-7 -2 -19 -2 -25 0 -7 3 -2 5 12 5 14 0 19
-2 13 -5z m-68 -13 c-27 -12 -43 -12 -25 0 8 5 22 9 30 9 10 0 8 -3 -5 -9z
m-45 -31 c-19 -4 -41 -3 -50 2 -11 7 -9 8 9 3 13 -3 21 -2 18 3 -3 5 8 7 26 4
l32 -5 -35 -7z m77 15 c-3 -3 -12 -4 -19 -1 -8 3 -5 6 6 6 11 1 17 -2 13 -5z
m-193 -49 c-10 -8 -26 -14 -34 -14 -9 0 -4 6 10 14 33 19 49 19 24 0z m945 -9
c21 -22 21 -26 8 -59 -16 -38 -44 -52 -79 -41 -58 17 -74 61 -36 101 29 31 77
31 107 -1z m-339 -6 c0 -5 -2 -10 -4 -10 -3 0 -8 5 -11 10 -3 6 -1 10 4 10 6
0 11 -4 11 -10z m-660 -10 c0 -5 -3 -9 -7 -8 -5 1 -27 -8 -50 -20 -24 -12 -43
-19 -43 -15 1 8 77 51 93 52 4 1 7 -3 7 -9z m634 1 c4 -5 -3 -7 -14 -4 -23 6
-26 13 -6 13 8 0 17 -4 20 -9z m-2531 -68 c4 -19 2 -33 -3 -33 -6 0 -10 6 -10
14 0 7 -3 29 -6 47 -7 44 11 17 19 -28z m2397 47 c0 -5 -8 -10 -17 -10 -15 0
-16 2 -3 10 19 12 20 12 20 0z m70 0 c-18 -12 -30 -13 -30 -2 0 4 10 9 22 9
18 2 20 0 8 -7z m45 0 c-3 -5 -12 -10 -18 -10 -7 0 -6 4 3 10 19 12 23 12 15
0z m-17 -38 c-9 -11 -13 -11 -20 0 -8 10 -11 10 -15 1 -2 -7 -12 -13 -21 -13
-13 0 -13 2 3 14 25 18 68 17 53 -2z m-128 -2 c0 -5 -5 -10 -11 -10 -5 0 -7 5
-4 10 3 6 8 10 11 10 2 0 4 -4 4 -10z m-560 -4 c0 -2 -7 -6 -15 -10 -8 -3 -15
-1 -15 4 0 6 7 10 15 10 8 0 15 -2 15 -4z m475 -6 c-3 -5 -12 -10 -18 -10 -7
0 -6 4 3 10 19 12 23 12 15 0z m45 -10 c0 -5 -7 -10 -16 -10 -8 0 -12 5 -9 10
3 6 10 10 16 10 5 0 9 -4 9 -10z m95 0 c3 -5 -1 -10 -10 -10 -9 0 -13 5 -10
10 3 6 8 10 10 10 2 0 7 -4 10 -10z m-605 -22 c-13 -5 -28 -7 -34 -4 -6 2 -3
5 7 5 9 1 17 5 17 11 0 5 7 7 17 3 14 -5 12 -8 -7 -15z m-170 3 c0 -4 -11 -6
-25 -3 -14 2 -25 6 -25 8 0 2 11 4 25 4 14 0 25 -4 25 -9z m644 -7 c3 -8 2
-12 -4 -9 -6 3 -10 10 -10 16 0 14 7 11 14 -7z m77 -4 c-13 -11 -28 -20 -35
-19 -6 0 -1 5 12 11 12 6 22 15 22 20 0 4 6 8 13 8 6 -1 1 -10 -12 -20z m-908
3 c-7 -2 -19 -2 -25 0 -7 3 -2 5 12 5 14 0 19 -2 13 -5z m-70 -22 c15 -6 27
-12 27 -14 0 -8 -156 16 -165 25 -12 13 98 4 138 -11z m807 14 c0 -7 -61 -37
-66 -32 -3 2 10 12 28 20 37 19 38 19 38 12z m-684 -30 c10 -8 14 -15 9 -15
-6 0 -15 4 -20 9 -6 5 -19 11 -30 14 -20 5 -19 5 1 6 11 0 29 -6 40 -14z
m-1403 -32 c14 -4 16 -8 6 -19 -17 -20 -34 -17 -66 12 l-28 25 35 -6 c19 -4
43 -9 53 -12z m97 -23 c0 -7 -49 -20 -78 -20 -13 0 -13 2 1 18 12 13 26 17 47
14 16 -2 30 -8 30 -12z m1518 9 c9 0 4 -5 -12 -10 -17 -4 -32 -6 -35 -4 -2 3
2 5 10 5 12 0 11 2 -1 11 -12 9 -12 10 3 5 10 -3 26 -6 35 -7z m327 1 c3 -5
-1 -10 -10 -10 -9 0 -13 5 -10 10 3 6 8 10 10 10 2 0 7 -4 10 -10z m102 4 c-3
-3 -12 -4 -19 -1 -8 3 -5 6 6 6 11 1 17 -2 13 -5z m113 -4 c-8 -5 -22 -10 -30
-10 -13 0 -13 1 0 10 8 5 22 10 30 10 13 0 13 -1 0 -10z m-347 -17 c-7 -2 -21
-2 -30 0 -10 3 -4 5 12 5 17 0 24 -2 18 -5z m126 -9 c10 -9 -35 -3 -49 6 -11
8 -7 9 15 4 17 -4 32 -8 34 -10z m-244 -4 c-27 -4 -44 -8 -36 -8 8 -1 12 -4
10 -7 -3 -2 -16 -1 -29 2 -22 6 -23 7 -4 14 10 4 39 7 64 7 l45 -1 -50 -7z
m178 -7 c-7 -2 -19 -2 -25 0 -7 3 -2 5 12 5 14 0 19 -2 13 -5z m222 -64 c-22
-4 -53 -7 -70 -7 -26 1 -24 2 10 8 22 4 54 7 70 7 25 1 23 -1 -10 -8z m-365
-37 c0 -8 48 -26 95 -36 14 -2 11 -4 -8 -5 -15 0 -46 8 -69 19 -22 11 -45 17
-51 13 -6 -3 -7 -1 -3 5 8 14 36 16 36 4z m88 1 c-10 -2 -28 -2 -40 0 -13 2
-5 4 17 4 22 1 32 -1 23 -4z m242 -32 c0 -5 -9 -11 -20 -14 -11 -3 -20 -1 -20
3 0 5 8 11 18 13 9 3 18 5 20 6 1 0 2 -3 2 -8z"/>
<path d="M1787 4212 c-10 -10 -17 -22 -17 -25 0 -14 92 -6 117 10 23 16 24 17
7 24 -36 14 -90 10 -107 -9z"/>
<path d="M1932 4200 c-10 -17 -10 -20 3 -20 8 0 15 9 15 20 0 11 -1 20 -3 20
-1 0 -8 -9 -15 -20z"/>
<path d="M2150 4214 c0 -5 7 -20 16 -32 12 -17 25 -22 60 -22 49 0 52 3 26 30
-18 20 -102 39 -102 24z"/>
<path d="M1810 4138 c-11 -12 -20 -25 -20 -30 0 -22 89 1 121 31 l23 21 -52 0
c-40 0 -56 -5 -72 -22z"/>
<path d="M1946 4145 c-4 -11 2 -15 26 -15 30 0 31 1 12 15 -24 18 -31 18 -38
0z"/>
<path d="M2172 4130 c12 -16 23 -28 26 -26 7 7 -17 43 -33 50 -11 4 -9 -3 7
-24z"/>
<path d="M2220 4129 c1 -32 30 -52 82 -57 l53 -4 -30 30 c-33 34 -105 55 -105
31z"/>
<path d="M1895 4085 c-14 -13 -25 -31 -25 -39 0 -8 -3 -22 -7 -31 -6 -18 7
-17 69 7 24 9 68 62 68 82 0 3 -18 6 -40 6 -30 0 -47 -7 -65 -25z"/>
<path d="M2025 4089 c-9 -28 -4 -31 46 -27 l44 3 -36 23 c-44 27 -46 27 -54 1z"/>
<path d="M1355 4049 c-4 -6 -5 -12 -2 -15 2 -3 7 2 10 11 7 17 1 20 -8 4z"/>
<path d="M1416 4030 c8 -43 14 -51 14 -19 0 13 -5 31 -10 39 -7 11 -8 5 -4
-20z"/>
<path d="M1997 4028 c-16 -13 -37 -59 -37 -83 0 -11 8 -11 38 -3 43 12 60 25
85 67 l18 31 -44 0 c-24 0 -51 -6 -60 -12z"/>
<path d="M2123 4034 c3 -4 0 -19 -8 -35 -8 -15 -15 -29 -15 -31 0 -2 20 -3 43
-3 36 0 43 3 40 16 -6 22 -40 59 -55 59 -6 0 -9 -3 -5 -6z"/>
<path d="M1340 4004 c0 -10 5 -26 10 -34 8 -11 9 -7 4 15 -8 37 -14 45 -14 19z"/>
<path d="M1875 3980 c-22 -4 -35 -8 -30 -9 6 0 40 -29 76 -64 68 -65 129 -156
129 -194 0 -35 14 -33 31 3 16 34 16 34 -7 34 -29 0 -33 34 -7 62 15 17 14 18
-20 18 -33 0 -37 3 -37 26 0 14 5 34 11 45 10 19 8 20 -42 13 l-52 -7 6 42 c3
28 1 41 -6 40 -7 -1 -30 -5 -52 -9z"/>
<path d="M1431 3954 c0 -11 3 -14 6 -6 3 7 2 16 -1 19 -3 4 -6 -2 -5 -13z"/>
<path d="M2093 3943 c-27 -5 -41 -22 -53 -62 -10 -36 1 -40 53 -17 30 13 79
76 58 76 -5 0 -15 2 -23 4 -7 2 -23 1 -35 -1z"/>
<path d="M2180 3925 c-6 -16 -18 -38 -27 -47 -17 -19 -16 -20 40 -32 28 -7 28
-6 21 31 -4 21 -10 47 -14 58 -7 18 -9 17 -20 -10z"/>
<path d="M2107 3825 c-10 -9 -22 -25 -27 -36 -10 -17 -7 -19 24 -19 34 0 98
41 85 54 -16 16 -67 17 -82 1z"/>
<path d="M2208 3798 c-17 -25 -17 -26 9 -33 32 -8 34 -6 19 29 l-12 29 -16
-25z"/>
<path d="M2115 3724 c-14 -15 -25 -33 -25 -40 0 -19 24 -18 40 1 7 8 22 15 35
15 20 0 55 27 55 43 0 4 -18 7 -40 7 -31 0 -47 -6 -65 -26z"/>
<path d="M2243 3724 c-10 -23 -9 -24 19 -24 l31 0 -19 23 c-10 12 -19 23 -19
24 0 1 -5 -9 -12 -23z"/>
<path d="M2295 3680 c3 -5 14 -10 23 -10 15 0 15 2 2 10 -20 13 -33 13 -25 0z"/>
<path d="M2142 3653 c-33 -48 -34 -63 -8 -63 18 0 29 10 43 37 11 23 28 40 43
44 20 6 17 7 -17 8 -35 1 -45 -4 -61 -26z"/>
<path d="M2060 3630 c0 -60 68 -179 118 -204 60 -30 67 -29 67 13 l1 38 -56
-1 c-60 -1 -63 3 -47 66 6 23 4 28 -10 26 -56 -4 -64 7 -39 55 14 26 14 27
-10 27 -17 0 -24 -5 -24 -20z"/>
<path d="M2224 3640 c-21 -8 -54 -83 -54 -122 0 -15 5 -17 28 -12 15 4 33 10
41 14 15 8 52 115 43 125 -8 7 -33 5 -58 -5z"/>
<path d="M1000 3465 c-14 -8 -44 -14 -67 -15 -51 0 -83 -29 -83 -74 0 -22 11
-40 44 -70 l44 -41 -24 -64 c-14 -36 -23 -69 -21 -75 3 -9 10 5 42 95 l17 46
36 -10 c25 -6 46 -6 64 1 27 11 27 12 26 104 -1 119 -16 139 -78 103z m54 -1
c21 -8 21 -63 0 -71 -10 -3 -26 4 -42 20 -26 26 -26 27 -7 42 23 16 27 17 49
9z m-63 -55 c19 -17 44 -35 57 -40 30 -12 32 -83 3 -99 -54 -29 -191 46 -191
104 0 68 72 88 131 35z"/>
<path d="M2590 3310 c-10 -19 -5 -66 9 -74 3 -2 6 18 6 45 0 27 -1 49 -2 49
-1 0 -7 -9 -13 -20z"/>
<path d="M5956 2971 c-16 -11 -34 -28 -39 -38 -7 -13 -2 -11 16 6 15 14 30 21
34 18 3 -4 12 -2 19 3 12 11 44 -11 44 -30 0 -5 -36 -28 -80 -51 -44 -22 -80
-46 -80 -51 0 -5 13 0 29 12 16 11 49 27 72 35 23 9 48 20 56 26 20 17 16 56
-9 73 -28 20 -27 20 -62 -3z"/>
<path d="M1440 2552 c-8 -2 -25 -14 -38 -26 -13 -11 -42 -28 -65 -36 -29 -11
-45 -24 -51 -43 -16 -46 2 -78 62 -106 l52 -26 -5 -80 c-4 -54 -2 -74 4 -60 5
11 10 48 10 83 1 58 2 62 25 62 12 0 37 5 55 11 42 15 49 47 23 101 -12 23
-19 45 -16 49 5 9 -21 65 -33 72 -5 2 -15 2 -23 -1z m34 -28 c3 -9 6 -24 6
-35 0 -23 -36 -26 -64 -6 -16 12 -17 16 -5 35 16 26 54 29 63 6z m-63 -55 c23
-11 47 -18 55 -15 16 6 54 -48 54 -77 0 -43 -112 -56 -182 -21 -66 34 -62 110
7 127 11 2 21 5 23 6 1 0 21 -8 43 -20z"/>
<path d="M1900 2536 c-6 -9 -10 -21 -7 -28 4 -9 6 -7 6 4 1 9 7 18 14 21 6 2
9 7 6 11 -3 4 -12 0 -19 -8z"/>
<path d="M2018 2543 c12 -2 32 -2 45 0 12 2 2 4 -23 4 -25 0 -35 -2 -22 -4z"/>
<path d="M2131 2511 c56 -35 83 -91 69 -142 -5 -18 -15 -36 -22 -41 -20 -12
-123 -9 -136 4 -6 6 -14 9 -18 6 -22 -22 112 -42 161 -24 16 5 38 -9 105 -64
123 -103 138 -121 132 -159 -6 -45 -35 -58 -71 -31 -18 12 -45 20 -69 20 -97
0 -138 -133 -56 -186 55 -37 135 -12 158 48 l11 30 101 -4 c69 -3 117 -11 155
-25 30 -12 74 -27 97 -33 62 -16 112 -65 119 -115 4 -30 1 -44 -11 -54 -21
-18 -20 -32 2 -25 14 5 15 4 2 -5 -13 -10 -13 -12 0 -21 9 -6 10 -10 3 -10 -7
0 -16 8 -22 17 -7 14 -12 15 -24 5 -11 -10 -17 -9 -27 4 -22 26 -67 44 -107
43 l-38 -2 40 -6 c54 -9 102 -39 110 -68 5 -23 -30 -103 -45 -103 -12 0 -45
-29 -33 -30 6 0 29 17 50 37 l38 38 100 0 c55 0 128 -3 163 -7 53 -7 62 -5 62
8 0 9 16 31 35 50 l35 32 -30 57 c-35 67 -40 138 -12 195 16 35 19 37 58 32
57 -6 94 19 94 63 0 44 -38 83 -54 56 -3 -5 1 -14 9 -21 24 -20 19 -59 -7 -65
-54 -11 -74 -9 -88 8 -13 16 -58 31 -120 40 -8 1 -17 4 -20 7 -3 3 -17 11 -32
17 -35 16 -105 104 -118 151 -13 49 -12 72 5 102 46 80 -33 179 -121 150 -90
-30 -100 -146 -16 -189 18 -10 22 -20 22 -59 0 -44 -3 -49 -35 -66 -19 -11
-38 -16 -42 -13 -3 4 2 7 13 8 11 0 2 6 -19 15 -22 7 -73 31 -115 53 -43 21
-137 62 -210 91 l-133 53 -21 50 c-20 46 -83 107 -111 107 -6 0 10 -13 34 -29z
m713 -62 c43 -34 35 -99 -16 -125 -52 -27 -108 6 -108 64 0 71 68 105 124 61z
m-509 -127 c-3 -3 -11 0 -18 7 -9 10 -8 11 6 5 10 -3 15 -9 12 -12z m522 -74
c-3 -8 -6 -5 -6 6 -1 11 2 17 5 13 3 -3 4 -12 1 -19z m-202 -76 c-3 -3 -11 0
-18 7 -9 10 -8 11 6 5 10 -3 15 -9 12 -12z m-203 -64 c-7 -7 -12 -8 -12 -2 0
6 3 14 7 17 3 4 9 5 12 2 2 -3 -1 -11 -7 -17z m483 -18 c-3 -5 -11 -10 -16
-10 -6 0 -7 5 -4 10 3 6 11 10 16 10 6 0 7 -4 4 -10z m-592 -57 c25 -23 23
-87 -5 -113 -45 -42 -128 -9 -128 51 0 78 76 113 133 62z m784 -12 c0 -11 -7
-17 -14 -14 -9 4 -9 8 0 19 16 17 16 17 14 -5z m-564 -38 c-7 -2 -19 -2 -25 0
-7 3 -2 5 12 5 14 0 19 -2 13 -5z m144 -9 c-3 -3 -12 -4 -19 -1 -8 3 -5 6 6 6
11 1 17 -2 13 -5z m373 -224 c0 -5 -4 -10 -10 -10 -5 0 -10 5 -10 10 0 6 5 10
10 10 6 0 10 -4 10 -10z m75 -20 c3 -5 -3 -10 -15 -10 -12 0 -18 5 -15 10 3 6
10 10 15 10 5 0 12 -4 15 -10z m-283 -77 c-6 -2 -10 -9 -6 -14 3 -5 1 -9 -4
-9 -6 0 -12 7 -16 15 -4 11 1 15 17 14 12 0 16 -3 9 -6z m161 -20 c-7 -2 -19
-2 -25 0 -7 3 -2 5 12 5 14 0 19 -2 13 -5z m84 -9 c-3 -3 -12 -4 -19 -1 -8 3
-5 6 6 6 11 1 17 -2 13 -5z"/>
<path d="M6055 2375 c-16 -15 -25 -36 -25 -55 0 -35 38 -80 67 -80 11 0 24
-12 30 -27 10 -23 22 -46 51 -92 1 -3 7 0 13 6 7 7 6 14 -3 24 -8 8 -23 28
-33 46 -18 31 -18 34 -2 68 18 38 22 82 9 102 -7 12 -54 33 -73 33 -5 0 -21
-11 -34 -25z m93 -8 c17 -13 15 -68 -4 -95 -8 -12 -25 -22 -36 -22 -27 0 -68
38 -68 62 0 22 18 60 34 70 13 8 55 0 74 -15z"/>
<path d="M1985 2360 c10 -11 20 -20 23 -20 3 0 -3 9 -13 20 -10 11 -20 20 -23
20 -3 0 3 -9 13 -20z"/>
<path d="M996 2308 c-20 -11 -20 -47 -1 -71 8 -12 11 -31 8 -52 -4 -25 0 -38
16 -54 32 -32 67 -27 112 18 33 32 41 47 45 87 7 71 -2 78 -89 80 -41 0 -82
-3 -91 -8z m61 -13 c6 -17 -23 -55 -42 -55 -27 0 -33 56 -7 63 33 9 43 7 49
-8z m103 -4 c14 -28 13 -46 -10 -96 -34 -74 -94 -98 -125 -51 -20 31 -12 66
25 101 16 15 26 33 23 40 -4 13 15 20 59 24 10 0 22 -8 28 -18z"/>
<path d="M5045 2101 c-22 -10 -54 -35 -72 -55 -17 -20 -40 -36 -50 -37 -19 -1
-38 -4 -123 -20 -30 -6 -86 -12 -125 -15 -247 -17 -288 -30 -259 -86 18 -35
18 -102 -1 -155 -14 -40 -13 -45 7 -84 12 -23 21 -56 21 -75 l0 -33 41 24 c23
13 70 29 105 35 35 6 80 20 100 31 48 26 102 25 119 -2 21 -33 73 -50 116 -38
97 27 97 171 0 198 -43 12 -95 -5 -116 -38 -17 -27 -29 -26 -62 3 -21 17 -27
30 -24 52 3 26 11 32 96 66 51 21 107 47 123 59 29 20 31 20 50 4 22 -21 26
-9 4 15 -8 9 -17 30 -20 46 -7 40 33 83 99 106 28 9 42 17 31 17 -11 1 -38 -8
-60 -18z m-128 -125 c0 -8 -6 -12 -15 -9 -11 5 -11 7 0 14 7 5 13 9 14 9 0 0
1 -6 1 -14z m48 -6 c-3 -5 -13 -6 -21 -3 -12 4 -13 8 -3 14 15 9 32 2 24 -11z
m-298 -36 c-3 -3 -12 -4 -19 -1 -8 3 -5 6 6 6 11 1 17 -2 13 -5z m141 -42 c2
-7 -5 -12 -15 -11 -12 0 -14 2 -4 6 11 5 11 7 0 15 -12 8 -12 9 0 6 8 -3 17
-10 19 -16z m39 12 c-3 -3 -12 -4 -19 -1 -8 3 -5 6 6 6 11 1 17 -2 13 -5z
m-390 -101 c-3 -10 -5 -4 -5 12 0 17 2 24 5 18 2 -7 2 -21 0 -30z m488 -58
c16 -15 25 -36 25 -55 0 -38 -39 -80 -74 -80 -39 0 -79 41 -79 80 0 24 7 40
27 57 35 30 71 29 101 -2z m-185 -25 c0 -5 -2 -10 -4 -10 -3 0 -8 5 -11 10 -3
6 -1 10 4 10 6 0 11 -4 11 -10z m-320 -30 c0 -5 -4 -10 -10 -10 -5 0 -10 5
-10 10 0 6 5 10 10 10 6 0 10 -4 10 -10z m302 3 c-6 -2 -10 -9 -6 -14 3 -5 0
-9 -5 -9 -12 0 -14 13 -4 23 3 4 11 7 17 6 6 0 5 -3 -2 -6z"/>
<path d="M5163 2113 c9 -2 23 -2 30 0 6 3 -1 5 -18 5 -16 0 -22 -2 -12 -5z"/>
<path d="M4246 2102 c-13 -21 -15 -79 -4 -101 17 -33 61 -46 98 -31 30 13 43
42 33 78 -8 34 -34 28 -27 -6 7 -35 -14 -55 -50 -46 -29 7 -40 31 -30 69 5 19
11 25 23 21 11 -4 10 -2 -3 9 -22 17 -33 19 -40 7z"/>
<path d="M5230 1959 l-45 -41 48 37 c41 33 53 45 45 45 -2 0 -23 -18 -48 -41z"/>
<path d="M5032 1909 c7 -5 38 -8 68 -8 66 1 56 6 -23 12 -32 2 -52 0 -45 -4z"/>
<path d="M2608 1734 c-37 -19 -35 -26 2 -13 17 6 30 15 30 20 0 11 1 11 -32
-7z"/>
<path d="M2544 1689 c-19 -22 -19 -22 4 -8 12 8 22 17 22 21 0 12 -6 9 -26
-13z"/>
<path d="M5239 1661 c-38 -38 -38 -74 1 -113 17 -16 30 -37 30 -46 0 -32 25
-122 34 -122 8 0 6 22 -10 107 -5 28 -2 36 24 58 17 14 34 40 37 57 6 28 3 36
-24 60 -40 35 -55 35 -92 -1z m76 3 c30 -20 36 -37 24 -71 -20 -59 -87 -66
-109 -13 -9 23 -9 34 4 58 23 44 44 51 81 26z"/>
<path d="M2509 1643 c-13 -16 -12 -17 4 -4 16 13 21 21 13 21 -2 0 -10 -8 -17
-17z"/>
<path d="M2461 1574 c-1 -25 23 -48 41 -41 9 4 7 6 -4 6 -9 1 -21 13 -26 29
-9 23 -11 24 -11 6z"/>
<path d="M2660 1530 c-21 -7 -21 -8 -5 -9 11 0 27 4 35 9 18 11 5 11 -30 0z"/>
<path d="M2588 1513 c6 -2 18 -2 25 0 6 3 1 5 -13 5 -14 0 -19 -2 -12 -5z"/>
<path d="M2005 1405 c-16 -13 -39 -24 -51 -25 -11 0 -29 -9 -39 -20 -15 -17
-16 -24 -6 -46 6 -14 20 -28 31 -31 11 -3 20 -11 20 -18 0 -27 41 -65 70 -65
36 0 57 20 70 71 13 48 5 101 -22 134 -24 31 -35 31 -73 0z m83 -48 c10 -50
-2 -117 -25 -134 -50 -38 -107 19 -84 84 7 18 10 42 6 53 -5 15 2 24 26 39 43
26 65 14 77 -42z m-125 -26 c-2 -43 -9 -48 -33 -26 -25 22 -26 41 -2 54 26 16
37 7 35 -28z"/>
<path d="M3448 743 c6 -2 18 -2 25 0 6 3 1 5 -13 5 -14 0 -19 -2 -12 -5z"/>
</g>
</svg>
